<svg width="122" height="84" viewBox="0 0 122 84" fill="none" xmlns="http://www.w3.org/2000/svg">
<g clip-path="url(#clip0_84_597)">
<path d="M8.40753 62.7909C7.83038 62.7909 7.25204 62.8147 6.68725 62.8627L6.60506 62.8697C2.85879 63.2008 0.118561 65.1221 0.231259 67.3389L0.253046 67.7398C0.267413 67.9931 0.282721 68.2656 0.295321 68.5678C0.302146 68.7169 0.50553 68.8312 0.758602 68.8312H92.9078C99.4048 68.7918 105.878 68.7422 112.147 68.6837C113.323 68.6861 114.498 68.6252 115.667 68.5013C117.409 68.2951 118.618 67.8864 119.364 67.2518H119.364C120.292 66.4648 120.321 65.4738 120.265 64.3542C120.151 62.0935 120.037 59.7185 119.924 57.3507C119.824 55.2639 119.725 53.1826 119.626 51.1901C119.564 50.0076 119.428 48.9639 118.374 48.1662C117.233 47.3035 115.152 46.8662 112.187 46.8662C112.152 46.8662 112.116 46.8662 112.08 46.8664C102.791 46.8994 93.5866 50.0935 89.1768 54.8144C88.669 55.358 88.1959 55.94 87.7382 56.5029C87.062 57.3345 86.363 58.1942 85.5288 58.9631C85.0771 59.385 84.5886 59.7657 84.0692 60.1008C84.0334 60.1255 83.9924 60.152 83.9491 60.1772C83.8499 60.2418 83.7463 60.3041 83.6453 60.3596C83.0537 60.7013 82.4303 60.9847 81.7839 61.2059L81.7187 61.2277C81.6696 61.2453 81.6163 61.2629 81.5631 61.2789C81.1898 61.3987 80.802 61.5023 80.4135 61.5861C78.7326 61.9566 76.8212 62.0454 74.7326 61.8499C72.8146 61.6655 70.9214 61.2797 69.0841 60.6988C67.1501 60.0876 65.3399 59.3255 63.5892 58.5886C62.8202 58.2648 62.0248 57.9301 61.2305 57.6129C61.0812 57.5532 60.9344 57.4948 60.7853 57.4365C59.8151 57.0584 58.9356 56.7461 58.0964 56.4818C56.0174 55.8245 53.8652 55.4259 51.6887 55.295C49.3784 55.1685 47.3425 55.4071 45.639 56.0024C45.1693 56.1659 44.712 56.363 44.2706 56.592C42.2528 57.6398 41.0089 59.1862 39.8061 60.6818C38.3098 62.542 36.7625 64.4657 33.7072 65.463C30.1818 66.6147 25.0358 66.1362 21.395 65.3041C20.2504 65.0424 19.1071 64.7414 18.0014 64.4502C17.5549 64.3326 17.108 64.2158 16.6608 64.0997C15.7821 63.8729 15.0629 63.699 14.3975 63.5523L14.1871 63.5055C14.07 63.4801 13.9529 63.4546 13.8336 63.4304C13.0433 63.2645 12.3074 63.1339 11.5827 63.0312L11.4112 63.0062C11.0674 62.9609 10.7461 62.9232 10.4307 62.8916L10.3048 62.879C9.68715 62.8203 9.04793 62.7909 8.40753 62.7909Z" fill="#F2F2F2"/>
<path d="M103.695 65.2651C106.288 62.9285 110.145 61.7537 113.38 63.0638C110.061 64.9063 107.501 67.8631 106.153 71.4112C105.638 72.7814 105.208 74.3591 103.941 75.0927C103.153 75.5492 102.172 75.5715 101.289 75.3511C100.405 75.1307 99.5948 74.689 98.7958 74.2517L98.5685 74.2465C99.589 70.9087 101.102 67.6016 103.695 65.2651Z" fill="#E6E6E6"/>
<path d="M113.362 63.1348C110.497 63.5051 107.821 64.7687 105.715 66.7463C105.254 67.1639 104.862 67.6516 104.552 68.1915C104.268 68.727 104.133 69.3289 104.16 69.9346C104.174 70.4998 104.254 71.0763 104.13 71.6351C104.063 71.9202 103.936 72.1878 103.757 72.4203C103.579 72.6529 103.354 72.8451 103.096 72.9845C102.463 73.3484 101.737 73.4631 101.023 73.5506C100.23 73.6478 99.4052 73.7362 98.719 74.1808C98.6359 74.2347 98.5571 74.1025 98.6402 74.0487C99.8341 73.2751 101.345 73.5566 102.629 73.0403C103.228 72.7994 103.758 72.3765 103.945 71.7371C104.109 71.178 104.028 70.5834 104.008 70.0112C103.973 69.4208 104.083 68.8307 104.329 68.2925C104.609 67.7387 104.982 67.2367 105.431 66.808C106.427 65.8266 107.57 65.0079 108.82 64.3819C110.243 63.6594 111.778 63.1856 113.36 62.981C113.458 62.9683 113.459 63.1223 113.362 63.1348H113.362Z" fill="white"/>
<path d="M106.356 66.0695C106.072 65.6711 105.939 65.1848 105.98 64.6974C106.022 64.21 106.236 63.7533 106.583 63.4088C106.653 63.3394 106.765 63.4457 106.694 63.5153C106.37 63.8354 106.171 64.2609 106.133 64.7148C106.095 65.1687 106.221 65.6213 106.488 65.9907C106.545 66.071 106.413 66.1494 106.356 66.0695V66.0695Z" fill="white"/>
<path d="M104.115 69.6489C105.1 69.8233 106.114 69.6203 106.956 69.0802C107.039 69.0266 107.118 69.1587 107.034 69.2123C106.158 69.7727 105.102 69.9818 104.078 69.798C103.98 69.7805 104.018 69.6314 104.115 69.6489V69.6489Z" fill="white"/>
<path d="M110.255 63.863C110.333 64.0401 110.453 64.195 110.606 64.314C110.758 64.433 110.938 64.5122 111.128 64.5447C111.226 64.561 111.188 64.7101 111.091 64.6938C110.88 64.657 110.682 64.5692 110.513 64.4382C110.345 64.3071 110.211 64.1367 110.123 63.9419C110.113 63.9242 110.111 63.9035 110.115 63.8839C110.12 63.8643 110.133 63.8473 110.15 63.8364C110.167 63.8261 110.188 63.8231 110.208 63.828C110.228 63.833 110.245 63.8456 110.255 63.863V63.863Z" fill="white"/>
<path d="M116.942 74.3317C116.881 74.3232 116.82 74.3147 116.757 74.3072C115.932 74.1977 115.099 74.1553 114.267 74.1807C114.202 74.1816 114.137 74.1835 114.073 74.1863C112.069 74.2688 110.097 74.7226 108.258 75.5248C107.527 75.8446 106.821 76.2197 106.146 76.6467C105.215 77.2364 104.252 77.95 103.211 78.1905C103.103 78.2168 102.993 78.2364 102.882 78.2491L98.5799 74.5242C98.5744 74.5108 98.5679 74.4983 98.5624 74.4849L98.3838 74.3441C98.417 74.3196 98.452 74.295 98.4853 74.2705C98.5045 74.2563 98.5247 74.2428 98.5439 74.2286C98.557 74.2193 98.5702 74.2101 98.5815 74.201C98.5859 74.1979 98.5903 74.1949 98.5938 74.1927C98.6051 74.1836 98.6166 74.1764 98.6271 74.1683C98.8224 74.03 99.019 73.8928 99.2169 73.7568C99.2178 73.7558 99.2177 73.7558 99.2196 73.7556C100.718 72.7047 102.335 71.8351 104.039 71.1652C104.09 71.1459 104.142 71.1256 104.195 71.108C104.962 70.8228 105.751 70.6008 106.554 70.4442C106.994 70.3598 107.438 70.2978 107.884 70.2583C109.038 70.1586 110.2 70.2409 111.328 70.5023C113.576 71.0236 115.633 72.2582 116.851 74.1836C116.882 74.2329 116.912 74.2814 116.942 74.3317Z" fill="#E6E6E6"/>
<path d="M116.885 74.3779C114.375 72.9485 111.477 72.3465 108.605 72.6574C107.986 72.7134 107.379 72.8667 106.807 73.1116C106.258 73.3682 105.787 73.7671 105.444 74.2671C105.115 74.7268 104.832 75.2352 104.397 75.6069C104.171 75.7939 103.908 75.9311 103.626 76.0094C103.344 76.0878 103.048 76.1056 102.759 76.0617C102.034 75.9711 101.385 75.6256 100.762 75.2656C100.071 74.8659 99.359 74.4397 98.5434 74.3816C98.4445 74.3746 98.4612 74.2216 98.5599 74.2287C99.9789 74.3298 101.016 75.4641 102.352 75.8248C102.975 75.9931 103.653 75.9746 104.188 75.577C104.655 75.2293 104.948 74.7054 105.277 74.237C105.604 73.7444 106.048 73.3394 106.567 73.0575C107.125 72.7843 107.725 72.6079 108.342 72.5359C109.727 72.3518 111.133 72.3866 112.508 72.6392C114.079 72.9188 115.59 73.465 116.977 74.2542C117.063 74.3031 116.97 74.4265 116.885 74.3779V74.3779Z" fill="white"/>
<path d="M109.524 72.503C109.537 72.014 109.724 71.5456 110.051 71.1816C110.377 70.8175 110.823 70.5814 111.308 70.5154C111.406 70.5024 111.431 70.6543 111.332 70.6673C110.881 70.7279 110.466 70.9479 110.162 71.2875C109.859 71.6272 109.687 72.0641 109.677 72.5195C109.675 72.6185 109.522 72.6014 109.524 72.503V72.503Z" fill="white"/>
<path d="M105.58 74.012C106.262 74.7441 107.194 75.1926 108.191 75.268C108.29 75.2754 108.273 75.4284 108.174 75.421C107.137 75.3405 106.168 74.8719 105.461 74.1085C105.393 74.0357 105.514 73.9396 105.58 74.012H105.58Z" fill="white"/>
<path d="M113.966 73.0889C113.922 73.277 113.925 73.4733 113.975 73.66C114.025 73.8468 114.12 74.0181 114.253 74.1588C114.321 74.2307 114.201 74.3267 114.133 74.2552C113.987 74.0992 113.882 73.9097 113.826 73.7035C113.77 73.4973 113.766 73.2806 113.813 73.0723C113.816 73.0523 113.827 73.0341 113.842 73.0215C113.858 73.0088 113.878 73.0026 113.898 73.0041C113.918 73.0064 113.937 73.0166 113.95 73.0325C113.962 73.0484 113.968 73.0686 113.966 73.0889V73.0889Z" fill="white"/>
<path d="M35.8184 67.589C37.9416 64.3686 41.7397 62.0391 45.5642 62.5404C42.5275 65.4341 40.6122 69.3087 40.1573 73.4786C39.9876 75.0874 39.9665 76.8944 38.8157 78.0314C38.0997 78.7389 37.0571 79.0356 36.0506 79.0458C35.0441 79.056 34.0548 78.8089 33.0785 78.5634L32.834 78.6211C32.9969 74.7673 33.6953 70.8093 35.8184 67.589Z" fill="#E6E6E6"/>
<path d="M45.5645 62.6213C42.6031 63.8144 40.0929 65.9103 38.3905 68.6112C38.0137 69.1862 37.7299 69.8169 37.5495 70.4803C37.3946 71.1321 37.4171 71.8135 37.6147 72.4537C37.7869 73.0544 38.0326 73.6488 38.0558 74.2808C38.0629 74.6045 38.0015 74.9261 37.8756 75.2244C37.7497 75.5226 37.5622 75.791 37.3253 76.0117C36.7494 76.577 36.0047 76.9018 35.2654 77.194C34.4446 77.5185 33.5869 77.8425 32.9766 78.5089C32.9027 78.5897 32.7817 78.4702 32.8555 78.3896C33.9172 77.2301 35.6113 77.1108 36.8407 76.2015C37.4144 75.7772 37.8636 75.1774 37.8864 74.4414C37.9063 73.7977 37.6535 73.1845 37.4738 72.5779C37.272 71.9562 37.2254 71.2945 37.3382 70.6506C37.4842 69.9803 37.7433 69.3396 38.1042 68.7562C38.896 67.4296 39.8914 66.2358 41.0539 65.2185C42.3743 64.0501 43.8849 63.1162 45.5202 62.4571C45.6214 62.4164 45.6651 62.5808 45.5645 62.6213L45.5645 62.6213Z" fill="white"/>
<path d="M38.8875 67.7093C38.4731 67.3621 38.1956 66.879 38.1046 66.3461C38.0135 65.8133 38.1149 65.2654 38.3905 64.8004C38.4466 64.7065 38.5951 64.7892 38.539 64.8832C38.2815 65.3158 38.1872 65.8262 38.273 66.3222C38.3588 66.8182 38.6191 67.2672 39.0068 67.5882C39.091 67.658 38.9712 67.7787 38.8875 67.7093V67.7093Z" fill="white"/>
<path d="M37.4873 72.1608C38.5889 72.0734 39.6171 71.5741 40.3669 70.7623C40.4411 70.6818 40.5621 70.8013 40.4879 70.8816C39.7061 71.7249 38.635 72.2424 37.4885 72.3308C37.3792 72.3391 37.3786 72.1691 37.4872 72.1608H37.4873Z" fill="white"/>
<path d="M42.4443 64.2643C42.5767 64.432 42.7486 64.5642 42.9447 64.6491C43.1408 64.734 43.3548 64.7688 43.5677 64.7505C43.6768 64.7407 43.6774 64.9108 43.569 64.9205C43.3337 64.9396 43.0973 64.9009 42.8805 64.8076C42.6636 64.7143 42.4729 64.5693 42.325 64.3854C42.3096 64.3692 42.3009 64.3478 42.3008 64.3254C42.3006 64.3031 42.309 64.2816 42.3241 64.2652C42.34 64.2492 42.3615 64.2402 42.384 64.24C42.4066 64.2398 42.4282 64.2486 42.4443 64.2643H42.4443Z" fill="white"/>
<path d="M52.5088 73.6006C52.4409 73.6086 52.3729 73.6166 52.3042 73.6259C51.391 73.7384 50.4884 73.9248 49.6054 74.1835C49.5368 74.2024 49.4675 74.2226 49.3996 74.2434C47.2788 74.8892 45.2964 75.9231 43.553 77.2926C42.8598 77.8382 42.209 78.4357 41.6065 79.08C40.7743 79.9699 39.9429 81.0009 38.8962 81.5478C38.7877 81.6061 38.6756 81.6576 38.5607 81.702L32.9233 78.9149C32.9136 78.9021 32.9033 78.8906 32.8936 78.8778L32.6635 78.7768C32.6922 78.7414 32.7228 78.7053 32.7515 78.6699C32.7681 78.6493 32.786 78.6294 32.8026 78.6088C32.8141 78.5952 32.8256 78.5817 32.8352 78.5688C32.8389 78.5643 32.8428 78.5598 32.846 78.5566C32.8555 78.5437 32.8658 78.5328 32.8747 78.5212C33.0451 78.3189 33.2173 78.1175 33.3911 77.917C33.3917 77.9157 33.3917 77.9157 33.3936 77.915C34.7222 76.3902 36.1896 74.963 37.8271 73.8038C37.8764 73.769 37.9262 73.7328 37.9781 73.6992C38.719 73.1808 39.5012 72.7239 40.3166 72.3329C40.7638 72.1202 41.2215 71.9304 41.6879 71.764C42.8938 71.3364 44.1595 71.1012 45.4385 71.067C47.9882 70.9991 50.5312 71.7474 52.3697 73.4678C52.4167 73.5118 52.4625 73.5553 52.5088 73.6006Z" fill="#E6E6E6"/>
<path d="M52.4608 73.6659C49.378 72.8355 46.1119 72.9977 43.1264 74.1293C42.4794 74.3615 41.873 74.6942 41.3296 75.1152C40.8135 75.5424 40.4212 76.1001 40.1935 76.7302C39.9694 77.3135 39.8077 77.936 39.4457 78.4546C39.2565 78.7174 39.0139 78.9371 38.7338 79.0995C38.4536 79.2618 38.1424 79.3632 37.8203 79.3968C37.0201 79.5015 36.23 79.3124 35.4638 79.1006C34.6131 78.8655 33.7331 78.6078 32.8446 78.7725C32.737 78.7925 32.7123 78.6243 32.8198 78.6043C34.3656 78.3177 35.7901 79.2425 37.3192 79.2566C38.0327 79.2632 38.7525 79.0548 39.2138 78.4808C39.6172 77.9789 39.7845 77.3371 40.0063 76.7445C40.2194 76.1266 40.5806 75.5702 41.0583 75.124C41.5786 74.6767 42.1711 74.3212 42.8106 74.0726C44.2414 73.4902 45.7549 73.1363 47.2957 73.024C49.0534 72.886 50.8218 73.0498 52.5243 73.5081C52.6297 73.5365 52.5655 73.6941 52.4608 73.6659V73.6659Z" fill="white"/>
<path d="M44.0664 73.7083C43.9445 73.1817 44.0138 72.6288 44.2619 72.1486C44.5101 71.6683 44.9208 71.2919 45.4209 71.0865C45.5222 71.0453 45.591 71.2008 45.4895 71.242C45.0235 71.4324 44.6409 71.7831 44.4108 72.2308C44.1807 72.6785 44.1182 73.1938 44.2345 73.6835C44.2597 73.79 44.0914 73.8142 44.0664 73.7083H44.0664Z" fill="white"/>
<path d="M40.2682 76.4195C41.2003 77.013 42.3219 77.2333 43.4093 77.0366C43.5171 77.017 43.5418 77.1852 43.4342 77.2048C42.3022 77.4074 41.1355 77.1757 40.1668 76.5559C40.0745 76.4968 40.1764 76.3606 40.2682 76.4195V76.4195Z" fill="white"/>
<path d="M48.9803 73.0994C48.985 73.313 49.0426 73.5221 49.1481 73.7079C49.2536 73.8937 49.4035 74.0504 49.5845 74.1639C49.6775 74.2219 49.5756 74.358 49.4832 74.3004C49.2838 74.1741 49.1184 74.0008 49.0014 73.7958C48.8844 73.5907 48.8194 73.3602 48.8121 73.1242C48.8095 73.102 48.8155 73.0797 48.8288 73.0618C48.8422 73.0439 48.8618 73.0317 48.8838 73.0277C48.9061 73.0245 48.9287 73.0303 48.9468 73.0437C48.9648 73.0571 48.9769 73.0771 48.9803 73.0994V73.0994Z" fill="white"/>
<path d="M50.929 43.4451C51.0698 43.3049 51.1783 43.1356 51.2466 42.949C51.315 42.7624 51.3416 42.563 51.3246 42.365C51.3075 42.167 51.2473 41.9752 51.1481 41.803C51.0489 41.6308 50.9132 41.4824 50.7505 41.3683L52.9694 30.6294L50.5754 31.3846L48.7902 41.7737C48.6167 42.0598 48.5541 42.3996 48.6144 42.7287C48.6747 43.0578 48.8536 43.3534 49.1172 43.5594C49.3808 43.7654 49.7109 43.8675 50.0448 43.8465C50.3787 43.8254 50.6933 43.6826 50.929 43.4451V43.4451Z" fill="#FFB6B6"/>
<path d="M56.058 14.7393L54.575 13.6199C54.575 13.6199 53.2669 13.5272 53.0352 15.8864C52.8035 18.2455 51.3528 27.2999 51.3528 27.2999L49.0836 37.8099L52.2248 38.4994L54.6553 27.1572L57.0882 19.3323L56.058 14.7393Z" fill="#E6E6E6"/>
<path d="M54.9281 34.1866L47.8147 28.6556C47.7039 28.5692 47.6319 28.4424 47.6145 28.3031C47.597 28.1637 47.6356 28.0231 47.7217 27.9121L52.5616 21.6875C52.6479 21.5767 52.7747 21.5047 52.9141 21.4873C53.0535 21.4698 53.1941 21.5084 53.3051 21.5945L60.4185 27.1255C60.5293 27.2119 60.6013 27.3387 60.6188 27.478C60.6362 27.6174 60.5976 27.758 60.5115 27.869L55.6716 34.0936C55.5853 34.2044 55.4585 34.2764 55.3191 34.2938C55.1797 34.3113 55.0391 34.2727 54.9281 34.1866V34.1866Z" fill="#3F3D56"/>
<path d="M54.889 33.6144L48.379 28.5526C48.2806 28.4759 48.2166 28.3633 48.2012 28.2396C48.1857 28.1158 48.2199 27.991 48.2964 27.8924L52.6839 22.2496C52.7606 22.1512 52.8732 22.0872 52.9969 22.0718C53.1207 22.0563 53.2455 22.0905 53.3441 22.167L59.8541 27.2288C59.9525 27.3055 60.0164 27.418 60.0319 27.5418C60.0474 27.6656 60.0132 27.7904 59.9367 27.889L55.5491 33.5318C55.4724 33.6302 55.3599 33.6941 55.2361 33.7096C55.1124 33.7251 54.9875 33.6909 54.889 33.6144V33.6144Z" fill="white"/>
<path d="M49.2325 28.4089C49.2079 28.3897 49.1919 28.3616 49.188 28.3307C49.1842 28.2997 49.1927 28.2685 49.2118 28.2439L51.4253 25.3972C51.4444 25.3726 51.4725 25.3566 51.5035 25.3527C51.5188 25.3508 51.5344 25.3519 51.5493 25.356C51.5641 25.3601 51.5781 25.3671 51.5903 25.3766C51.6025 25.386 51.6127 25.3978 51.6203 25.4113C51.628 25.4247 51.6329 25.4395 51.6348 25.4548C51.6367 25.4701 51.6356 25.4857 51.6315 25.5006C51.6274 25.5155 51.6204 25.5294 51.6109 25.5416L49.3975 28.3882C49.3783 28.4128 49.3502 28.4288 49.3193 28.4327C49.2883 28.4366 49.2571 28.428 49.2325 28.4089V28.4089Z" fill="#E4E4E4"/>
<path d="M49.5993 28.6941C49.5747 28.6749 49.5587 28.6468 49.5549 28.6158C49.551 28.5849 49.5596 28.5537 49.5787 28.529L51.7921 25.6824C51.8112 25.6578 51.8394 25.6417 51.8703 25.6379C51.9013 25.634 51.9325 25.6426 51.9571 25.6617C51.9817 25.6809 51.9977 25.709 52.0016 25.74C52.0055 25.7709 51.9969 25.8021 51.9778 25.8268L49.7643 28.6734C49.7452 28.698 49.717 28.714 49.6861 28.7179C49.6552 28.7217 49.624 28.7132 49.5993 28.6941Z" fill="#E4E4E4"/>
<path d="M51.2202 27.3667C51.1956 27.3475 51.1796 27.3194 51.1757 27.2884C51.1718 27.2575 51.1804 27.2263 51.1995 27.2016L52.159 25.9677C52.1684 25.9555 52.1802 25.9452 52.1937 25.9376C52.2071 25.9299 52.2219 25.925 52.2372 25.923C52.2526 25.9211 52.2681 25.9222 52.2831 25.9263C52.298 25.9304 52.3119 25.9374 52.3241 25.9469C52.3363 25.9564 52.3466 25.9682 52.3542 25.9816C52.3618 25.9951 52.3667 26.0099 52.3686 26.0252C52.3706 26.0406 52.3694 26.0561 52.3653 26.071C52.3612 26.0859 52.3542 26.0999 52.3447 26.1121L51.3852 27.346C51.366 27.3706 51.3379 27.3866 51.307 27.3905C51.276 27.3943 51.2448 27.3858 51.2202 27.3667V27.3667Z" fill="#E4E4E4"/>
<path d="M51.7148 29.7881C51.6902 29.769 51.6742 29.7408 51.6703 29.7099C51.6665 29.679 51.675 29.6478 51.6941 29.6231L55.1884 25.1292C55.1979 25.117 55.2097 25.1068 55.2231 25.0991C55.2366 25.0915 55.2514 25.0866 55.2667 25.0847C55.282 25.0827 55.2976 25.0839 55.3124 25.0879C55.3273 25.092 55.3413 25.099 55.3535 25.1085C55.3657 25.118 55.3759 25.1298 55.3835 25.1432C55.3911 25.1566 55.3961 25.1714 55.398 25.1867C55.3999 25.2021 55.3988 25.2176 55.3947 25.2325C55.3906 25.2474 55.3836 25.2613 55.3741 25.2735L51.8798 29.7675C51.8607 29.7921 51.8325 29.8081 51.8016 29.8119C51.7706 29.8158 51.7394 29.8073 51.7148 29.7881V29.7881Z" fill="#E4E4E4"/>
<path d="M52.0816 30.0736C52.057 30.0544 52.041 30.0263 52.0372 29.9953C52.0333 29.9644 52.0419 29.9332 52.061 29.9085L55.5553 25.4146C55.5647 25.4024 55.5765 25.3922 55.59 25.3845C55.6034 25.3769 55.6182 25.372 55.6335 25.3701C55.6488 25.3681 55.6644 25.3693 55.6793 25.3733C55.6942 25.3774 55.7081 25.3844 55.7203 25.3939C55.7325 25.4034 55.7427 25.4152 55.7503 25.4286C55.758 25.442 55.7629 25.4568 55.7648 25.4721C55.7667 25.4875 55.7656 25.503 55.7615 25.5179C55.7574 25.5328 55.7504 25.5467 55.7409 25.5589L52.2467 30.0529C52.2275 30.0775 52.1993 30.0935 52.1684 30.0974C52.1375 30.1012 52.1063 30.0927 52.0816 30.0736V30.0736Z" fill="#E4E4E4"/>
<path d="M52.9144 30.721C52.8898 30.7018 52.8738 30.6737 52.8699 30.6428C52.8661 30.6118 52.8746 30.5806 52.8937 30.556L56.388 26.062C56.3975 26.0498 56.4093 26.0396 56.4227 26.032C56.4361 26.0243 56.4509 26.0194 56.4663 26.0175C56.4816 26.0156 56.4971 26.0167 56.512 26.0208C56.5269 26.0249 56.5409 26.0319 56.553 26.0414C56.5652 26.0508 56.5754 26.0626 56.5831 26.0761C56.5907 26.0895 56.5956 26.1043 56.5976 26.1196C56.5995 26.1349 56.5984 26.1505 56.5943 26.1654C56.5902 26.1803 56.5832 26.1942 56.5737 26.2064L53.0794 30.7004C53.0602 30.7249 53.0321 30.7409 53.0012 30.7448C52.9702 30.7487 52.939 30.7401 52.9144 30.721V30.721Z" fill="#E4E4E4"/>
<path d="M53.2812 31.0062C53.2566 30.987 53.2406 30.9589 53.2368 30.9279C53.2329 30.897 53.2414 30.8658 53.2606 30.8411L56.7548 26.3472C56.7643 26.335 56.7761 26.3248 56.7895 26.3171C56.803 26.3095 56.8178 26.3046 56.8331 26.3027C56.8484 26.3008 56.864 26.3019 56.8789 26.306C56.8937 26.3101 56.9077 26.317 56.9199 26.3265C56.9321 26.336 56.9423 26.3478 56.9499 26.3612C56.9575 26.3746 56.9625 26.3894 56.9644 26.4048C56.9663 26.4201 56.9652 26.4356 56.9611 26.4505C56.957 26.4654 56.95 26.4794 56.9405 26.4916L53.4462 30.9855C53.4271 31.0101 53.3989 31.0261 53.368 31.03C53.3371 31.0338 53.3058 31.0253 53.2812 31.0062V31.0062Z" fill="#E4E4E4"/>
<path d="M54.114 31.6536C54.0894 31.6345 54.0734 31.6063 54.0695 31.5754C54.0656 31.5444 54.0742 31.5132 54.0933 31.4886L57.5876 26.9946C57.5971 26.9824 57.6089 26.9722 57.6223 26.9646C57.6357 26.957 57.6505 26.952 57.6658 26.9501C57.6812 26.9482 57.6967 26.9493 57.7116 26.9534C57.7265 26.9575 57.7404 26.9645 57.7526 26.974C57.7648 26.9835 57.775 26.9952 57.7827 27.0087C57.7903 27.0221 57.7952 27.0369 57.7971 27.0522C57.7991 27.0675 57.7979 27.0831 57.7938 27.098C57.7898 27.1129 57.7828 27.1268 57.7733 27.139L54.279 31.633C54.2598 31.6576 54.2317 31.6736 54.2007 31.6774C54.1698 31.6813 54.1386 31.6727 54.114 31.6536Z" fill="#E4E4E4"/>
<path d="M54.4808 31.939C54.4562 31.9198 54.4402 31.8917 54.4363 31.8607C54.4325 31.8298 54.441 31.7986 54.4601 31.7739L57.9544 27.28C57.9736 27.2555 58.0017 27.2396 58.0326 27.2358C58.0635 27.2319 58.0947 27.2405 58.1192 27.2596C58.1438 27.2787 58.1598 27.3068 58.1637 27.3377C58.1676 27.3686 58.1591 27.3997 58.1401 27.4244L54.6458 31.9183C54.6267 31.9429 54.5985 31.9589 54.5676 31.9628C54.5366 31.9666 54.5054 31.9581 54.4808 31.939V31.939Z" fill="#E4E4E4"/>
<path d="M48.6408 37.1582C48.6674 37.1582 48.6891 37.1366 48.6891 37.1099C48.6891 37.0832 48.6674 37.0615 48.6408 37.0615C48.6141 37.0615 48.5924 37.0832 48.5924 37.1099C48.5924 37.1366 48.6141 37.1582 48.6408 37.1582Z" fill="white"/>
<path d="M55.6766 3.88674C55.5068 4.79922 55.2283 5.68809 54.8471 6.53436C52.6642 11.1522 58.8807 9.64704 61.1022 9.64704C63.5311 9.64704 65.8551 10.9243 65.5002 5.24906C65.3486 2.82485 63.5311 0.851074 61.1022 0.851074C59.0275 0.851074 56.1105 1.77324 55.6766 3.88674Z" fill="#2F2E41"/>
<path d="M63.3663 71.614H61.2968L60.312 63.6318H63.3663V71.614Z" fill="#FFB6B6"/>
<path d="M64.4587 75.1998H62.9746L62.7097 73.7987L62.0312 75.1998H58.0951C57.9064 75.1998 57.7227 75.1395 57.5707 75.0277C57.4187 74.9159 57.3064 74.7585 57.2503 74.5783C57.1941 74.3982 57.197 74.2049 57.2586 74.0265C57.3201 73.8481 57.437 73.6941 57.5923 73.5869L60.7356 71.416V69.9995L64.0418 70.1969L64.4587 75.1998Z" fill="#2F2E41"/>
<path d="M75.661 69.0025L74.0003 70.2375L68.447 64.4198L70.898 62.5972L75.661 69.0025Z" fill="#FFB6B6"/>
<path d="M78.6772 71.2281L77.4862 72.1136L76.4376 71.1473L76.7292 72.6765L73.5707 75.0253C73.4193 75.1379 73.2359 75.1992 73.0472 75.2001C72.8585 75.2011 72.6745 75.1417 72.5219 75.0307C72.3694 74.9196 72.2563 74.7628 72.1993 74.5829C72.1422 74.4031 72.1441 74.2097 72.2048 74.031L73.4317 70.4134L72.5865 69.2767L75.3573 67.4622L78.6772 71.2281Z" fill="#2F2E41"/>
<path d="M56.5886 34.8776L66.4123 33.3475L64.4587 27.4705H56.5886V34.8776Z" fill="#FFB6B6"/>
<path d="M65.7758 30.4304C65.7758 30.4304 69.7022 33.8227 67.8906 43.4933L65.6789 52.9689L71.7047 63.4306L68.6407 65.1019L61.2149 54.781L57.8169 46.8103L56.0195 32.841L65.7758 30.4304Z" fill="#2F2E41"/>
<path d="M59.6898 49.0818L59.4536 52.7393L60.145 63.5699L63.5772 64.7516L64.2272 53.6546L59.6898 49.0818Z" fill="#2F2E41"/>
<path d="M58.6346 10.8643L62.4319 11.0124L63.9453 13.5246L67.3982 14.1986L65.3369 24.6265L65.716 30.5619L62.2778 30.5409C59.8001 30.5258 57.4039 31.426 55.549 33.0688V33.0688L55.6518 25.3642L54.173 19.6128L54.5053 13.5821L57.283 13.2348L58.6346 10.8643Z" fill="#E6E6E6"/>
<path d="M60.7384 9.646C62.7122 9.646 64.3123 8.04593 64.3123 6.07215C64.3123 4.09836 62.7122 2.49829 60.7384 2.49829C58.7646 2.49829 57.1646 4.09836 57.1646 6.07215C57.1646 8.04593 58.7646 9.646 60.7384 9.646Z" fill="#FFB6B6"/>
<path d="M58.3114 2.42914C58.9376 2.04736 59.655 1.84083 60.3883 1.83117C61.1217 1.8215 61.8442 2.00904 62.4803 2.37418C63.1164 2.73933 63.6428 3.26866 64.0043 3.90683C64.3658 4.545 64.5492 5.26858 64.5353 6.0019C62.7142 6.45911 60.8011 6.809 58.8591 6.11126L58.4004 4.98881L58.1301 6.11209C57.5386 6.35382 56.9457 6.55835 56.3528 6.10975C56.3285 5.3785 56.4967 4.65371 56.8404 4.00781C57.1841 3.36192 57.6913 2.81756 58.3114 2.42914Z" fill="#2F2E41"/>
<path d="M66.7372 37.7673L67.219 42.1395C67.2525 42.2486 67.3202 42.344 67.412 42.4119C67.5038 42.4797 67.6149 42.5163 67.7291 42.5163H69.9498C70.0639 42.5163 70.1751 42.4797 70.2669 42.4119C70.3587 42.3441 70.4264 42.2486 70.4599 42.1395L70.859 38.7884C70.9741 38.8449 71.1011 38.8732 71.2293 38.8711C71.3576 38.8689 71.4835 38.8364 71.5967 38.7761C71.71 38.7158 71.8072 38.6295 71.8806 38.5243C71.954 38.419 72.0013 38.2979 72.0187 38.1708C72.0361 38.0437 72.0232 37.9143 71.9808 37.7932C71.9385 37.6721 71.868 37.5628 71.7752 37.4743C71.6823 37.3857 71.5698 37.3205 71.4469 37.2839C71.3239 37.2473 71.1941 37.2404 71.0679 37.2638C71.0182 37.205 70.9561 37.1578 70.8862 37.1255C70.8162 37.0931 70.7401 37.0765 70.663 37.0767H67.2473C67.1638 37.0767 67.0815 37.0963 67.0069 37.1339C66.9323 37.1715 66.8677 37.2261 66.818 37.2933C66.7684 37.3605 66.7353 37.4384 66.7212 37.5207C66.7072 37.603 66.7127 37.6875 66.7372 37.7673V37.7673ZM70.9287 38.5618L71.1731 37.7673C71.2014 37.6757 71.2042 37.578 71.1812 37.4848C71.1916 37.4843 71.2015 37.4817 71.212 37.4817C71.3655 37.4817 71.5127 37.5427 71.6212 37.6512C71.7298 37.7598 71.7907 37.9069 71.7907 38.0604C71.7907 38.2139 71.7298 38.3611 71.6212 38.4696C71.5127 38.5781 71.3655 38.6391 71.212 38.6391C71.1125 38.6385 71.0148 38.6118 70.9287 38.5618V38.5618Z" fill="#485BFF"/>
<path d="M70.0859 42.5192C69.9457 42.3784 69.8382 42.2085 69.7708 42.0215C69.7034 41.8346 69.6778 41.6351 69.6958 41.4372C69.7138 41.2393 69.775 41.0477 69.8751 40.876C69.9751 40.7043 70.1116 40.5567 70.2749 40.4434L68.1106 29.6934L70.5007 30.4607L72.2331 40.8588C72.4052 41.1457 72.466 41.4858 72.404 41.8146C72.3421 42.1434 72.1617 42.438 71.897 42.6427C71.6324 42.8474 71.3018 42.9479 70.968 42.9251C70.6342 42.9024 70.3203 42.7579 70.0859 42.5192V42.5192Z" fill="#FFB6B6"/>
<path d="M65.9151 15.3181L67.3981 14.1987C67.3981 14.1987 68.7063 14.1061 68.9379 16.4652C69.1696 18.8244 70.6203 27.8788 70.6203 27.8788L72.8895 38.3888L69.7483 39.0783L67.3178 27.7361L64.8849 19.9111L65.9151 15.3181Z" fill="#E6E6E6"/>
<path d="M53.1165 25.1039C53.5802 25.1039 53.956 24.7281 53.956 24.2645C53.956 23.8009 53.5802 23.425 53.1165 23.425C52.6529 23.425 52.2771 23.8009 52.2771 24.2645C52.2771 24.7281 52.6529 25.1039 53.1165 25.1039Z" fill="#485BFF"/>
<path d="M26.3481 81.3523L28.0975 81.3522L28.9298 74.6045L26.3478 74.6046L26.3481 81.3523Z" fill="#FFB6B6"/>
<path d="M25.9017 80.7811L26.3941 80.7811L28.3166 79.9993L29.347 80.781H29.3471C29.9294 80.781 30.4878 81.0123 30.8995 81.424C31.3113 81.8358 31.5426 82.3942 31.5427 82.9765V83.0478L25.9018 83.048L25.9017 80.7811Z" fill="#2F2E41"/>
<path d="M33.1273 80.2497L34.8338 80.635L37.132 74.2364L34.6134 73.6677L33.1273 80.2497Z" fill="#FFB6B6"/>
<path d="M32.8179 79.5945L33.2982 79.7029L35.3456 79.3638L36.1785 80.3532L36.1786 80.3533C36.7466 80.4816 37.2404 80.8302 37.5513 81.3225C37.8622 81.8148 37.9649 82.4105 37.8366 82.9785L37.8209 83.0481L32.3186 81.8057L32.8179 79.5945Z" fill="#2F2E41"/>
<path d="M23.1454 46.643L24.7273 64.367C24.7273 64.367 24.1346 75.0076 26.0473 78.752H28.8211L30.1945 63.3952L30.367 53.0877L36.3139 61.7838L32.5261 78.5009L35.9401 78.8061L42.0867 60.6641L35.3339 43.6331L23.1454 46.643Z" fill="#2F2E41"/>
<path d="M24.8022 18.418C27.0553 18.418 28.8819 16.5915 28.8819 14.3383C28.8819 12.0851 27.0553 10.2585 24.8022 10.2585C22.549 10.2585 20.7224 12.0851 20.7224 14.3383C20.7224 16.5915 22.549 18.418 24.8022 18.418Z" fill="#FFB8B8"/>
<path d="M31.9741 22.3056L28.6271 20.8695L26.9977 19.1414L22.9274 19.7978L21.8475 21.6495L18.3516 24.9002L22.4475 43.4199L22.3235 47.4648C22.3235 47.4648 24.945 48.645 36.3139 45.9277C36.4502 45.8952 36.1648 45.7525 36.1648 45.7525L31.9741 22.3056Z" fill="#3F3D56"/>
<path d="M20.5601 16.6531C20.5316 16.6143 20.5034 16.5751 20.4755 16.5356C20.4643 16.5594 20.4553 16.5839 20.4425 16.607L20.5601 16.6531Z" fill="#2F2E41"/>
<path d="M28.8604 11.3541C28.5877 10.76 28.1015 10.2903 27.4984 10.0382C26.9006 9.79709 26.2324 9.79767 25.635 10.0398C25.0957 9.69908 24.4964 9.42893 23.8653 9.39547C23.2342 9.36201 22.5669 9.59615 22.178 10.1116C22.0911 10.2476 21.9925 10.3758 21.8832 10.4945C21.5706 10.784 21.0954 10.7423 20.6799 10.6831C20.8663 10.8428 21.0527 11.0026 21.2392 11.1623C21.0136 11.2212 20.7879 11.2802 20.5623 11.3391C20.8256 11.4988 21.0889 11.6585 21.3521 11.8182C20.5878 12.277 20.2404 13.2783 20.3322 14.1877C20.419 15.0487 20.8347 15.836 21.3316 16.5358C21.5298 16.1175 21.4871 15.617 21.4838 15.1458C21.4804 14.648 21.5685 14.0828 21.9674 13.8045C22.2364 13.6169 22.5824 13.6085 22.9069 13.6103C24.5437 13.6193 26.1785 13.7213 27.8037 13.916C28.0242 13.9255 28.2392 13.9879 28.4306 14.0978C28.79 14.343 28.86 14.849 28.8961 15.2929C29.086 14.5599 29.1789 13.8053 29.1725 13.0482C29.1885 12.4678 29.0822 11.8906 28.8604 11.3541V11.3541Z" fill="#2F2E41"/>
<path d="M30.1306 59.0676C33.677 59.0676 36.5519 56.1927 36.5519 52.6463C36.5519 49.1 33.677 46.2251 30.1306 46.2251C26.5842 46.2251 23.7094 49.1 23.7094 52.6463C23.7094 56.1927 26.5842 59.0676 30.1306 59.0676Z" fill="white"/>
<path d="M30.1307 46.0825C29.8006 46.0826 29.471 46.1074 29.1447 46.1567C28.9777 46.181 28.8151 46.2124 28.6538 46.2509C27.4692 46.524 26.3838 47.1208 25.5186 47.9748C24.6534 48.8288 24.0425 49.9064 23.7541 51.0874C23.4657 52.2683 23.511 53.5062 23.8851 54.6629C24.2592 55.8195 24.9474 56.8495 25.8727 57.6379C25.9826 57.7307 26.0939 57.8206 26.2095 57.9062C27.0425 58.5273 28.0112 58.9417 29.0357 59.1153C30.0602 59.2889 31.1113 59.2168 32.1025 58.9048C33.0937 58.5928 33.9966 58.0499 34.7369 57.3208C35.4773 56.5916 36.0339 55.6971 36.361 54.7108C36.6881 53.7245 36.7763 52.6747 36.6184 51.6476C36.4605 50.6206 36.0609 49.6457 35.4526 48.8033C34.8443 47.9608 34.0446 47.2748 33.1194 46.8018C32.1942 46.3288 31.1698 46.0823 30.1307 46.0825V46.0825ZM30.1307 58.925C28.7957 58.9265 27.4954 58.4999 26.4207 57.7078C26.3037 57.6222 26.1909 57.5338 26.0811 57.4396C25.1795 56.6791 24.5105 55.6798 24.1509 54.5565C23.7913 53.4331 23.7556 52.2312 24.0479 51.0885C24.3401 49.9457 24.9486 48.9085 25.8034 48.0958C26.6582 47.2831 27.7247 46.7277 28.8808 46.4935C29.0405 46.4607 29.2004 46.435 29.363 46.415C29.6177 46.3835 29.8741 46.3677 30.1307 46.3679C31.7959 46.3679 33.3929 47.0294 34.5703 48.2069C35.7478 49.3843 36.4093 50.9813 36.4093 52.6465C36.4093 54.3116 35.7478 55.9086 34.5703 57.0861C33.3929 58.2635 31.7959 58.925 30.1307 58.925V58.925Z" fill="#3F3D56"/>
<path d="M26.9811 51.3621H33.2802C33.5109 51.3621 33.698 51.175 33.698 50.9442V50.9237C33.698 50.693 33.5109 50.5059 33.2802 50.5059H26.9811C26.7503 50.5059 26.5633 50.693 26.5633 50.9237V50.9442C26.5633 51.175 26.7503 51.3621 26.9811 51.3621Z" fill="#485BFF"/>
<path d="M26.9811 53.0745H33.2802C33.5109 53.0745 33.698 52.8874 33.698 52.6566V52.6361C33.698 52.4054 33.5109 52.2183 33.2802 52.2183H26.9811C26.7503 52.2183 26.5633 52.4054 26.5633 52.6361V52.6566C26.5633 52.8874 26.7503 53.0745 26.9811 53.0745Z" fill="#485BFF"/>
<path d="M26.9811 54.7869H33.2802C33.5109 54.7869 33.698 54.5998 33.698 54.369V54.3485C33.698 54.1178 33.5109 53.9307 33.2802 53.9307H26.9811C26.7503 53.9307 26.5633 54.1178 26.5633 54.3485V54.369C26.5633 54.5998 26.7503 54.7869 26.9811 54.7869Z" fill="#485BFF"/>
<path d="M101.97 81.1344L100.136 81.1342L99.2633 74.0588L101.971 74.059L101.97 81.1344Z" fill="#9E616A"/>
<path d="M93.292 81.1344L91.4578 81.1342L90.5851 74.0588L93.2924 74.059L93.292 81.1344Z" fill="#9E616A"/>
<path d="M93.3566 83.048L87.7158 83.0478V82.9765C87.7159 82.3942 87.9472 81.8358 88.3589 81.424C88.7707 81.0123 89.3291 80.781 89.9114 80.781H89.9115L90.9419 79.9993L92.8643 80.7811L93.3567 80.7811L93.3566 83.048Z" fill="#2F2E41"/>
<path d="M102.27 83.048L96.6295 83.0478V82.9765C96.6296 82.3942 96.8609 81.8358 97.2726 81.424C97.6844 81.0123 98.2428 80.781 98.8251 80.781H98.8252L99.8556 79.9993L101.778 80.7811L102.27 80.7811L102.27 83.048Z" fill="#2F2E41"/>
<path d="M91.4927 39.2599L88.7049 56.2352L89.4636 58.7648L88.468 60.5563L89.93 76.2901L89.3366 77.5967L90.9947 78.6193H94.3687L94.5478 64.3754L95.3813 62.2841V61.1315L97.0779 52.4459L97.3903 64.6095L97.8839 66.7041L97.4693 68.1955L98.011 69.2403L99.4498 78.9297H103.233L102.941 76.6755C103.27 76.5086 103.535 76.237 103.693 75.9033C103.852 75.5695 103.895 75.1926 103.815 74.8318L103.598 73.8438L104.092 70.9224L104.991 54.624L104.738 41.4733L100.312 38.0889L91.4927 39.2599Z" fill="#2F2E41"/>
<path d="M97.8839 17.4616C99.8252 17.4616 101.399 15.8878 101.399 13.9465C101.399 12.0052 99.8252 10.4314 97.8839 10.4314C95.9425 10.4314 94.3688 12.0052 94.3688 13.9465C94.3688 15.8878 95.9425 17.4616 97.8839 17.4616Z" fill="#9E616A"/>
<path d="M90.2037 45.9961C90.3567 45.838 90.4731 45.6484 90.5449 45.4404C90.6166 45.2325 90.6419 45.0113 90.6189 44.7926C90.596 44.5738 90.5253 44.3628 90.4119 44.1743C90.2986 43.9858 90.1453 43.8244 89.9628 43.7016L91.3297 38.5325L88.6962 39.4183L87.8019 44.1912C87.6159 44.5114 87.5538 44.8887 87.6273 45.2516C87.7009 45.6146 87.9051 45.9379 88.2011 46.1604C88.4972 46.3829 88.8646 46.4891 89.2336 46.4588C89.6027 46.4285 89.9479 46.2639 90.2037 45.9961H90.2037Z" fill="#9E616A"/>
<path d="M91.6423 21.1783L91.077 21.061L90.5949 21.328C90.5949 21.328 89.2483 23.1235 89.2483 24.7693C89.2483 26.4152 87.6024 42.2753 87.6024 42.2753L90.5949 43.622L92.9889 31.2032L91.6423 21.1783Z" fill="#E6E6E6"/>
<path d="M100.962 11.3692C100.962 11.3692 101.882 9.61169 99.8589 9.45192C99.8589 9.45192 98.1346 7.88774 96.377 9.16596C96.377 9.16596 95.4184 9.16596 94.8941 10.2508C94.8941 10.2508 94.1401 9.96485 93.9745 10.7301C93.9745 10.7301 93.4227 12.3279 93.9745 13.7659C94.5262 15.2039 94.7094 15.3637 94.7094 15.3637C94.7094 15.3637 93.8028 12.3488 96.0095 12.1891C98.2162 12.0293 100.686 10.6503 100.869 12.4078C101.053 14.1654 101.33 14.5984 101.33 14.5984C101.33 14.5984 103.077 12.0882 100.962 11.3692Z" fill="#2F2E41"/>
<path d="M113.803 60.5562C113.537 60.5566 113.281 60.4589 113.083 60.2819L102.446 50.8125C102.231 50.6212 102.101 50.3528 102.085 50.066C102.068 49.7792 102.166 49.4975 102.357 49.2827L109.171 41.6271C109.363 41.4127 109.631 41.2829 109.918 41.2662C110.205 41.2496 110.487 41.3473 110.701 41.5381L121.339 51.0077C121.554 51.1988 121.684 51.4673 121.7 51.7541C121.717 52.041 121.619 52.3227 121.428 52.5374L114.613 60.193C114.519 60.2996 114.404 60.3864 114.276 60.4485C114.148 60.5105 114.009 60.5465 113.867 60.5543C113.845 60.5557 113.824 60.5562 113.803 60.5562Z" fill="white"/>
<path d="M113.803 60.6261C113.52 60.6265 113.248 60.5226 113.037 60.3342L102.399 50.8648C102.171 50.6612 102.033 50.3755 102.015 50.0702C101.998 49.765 102.102 49.4651 102.305 49.2365L109.12 41.5809C109.323 41.3528 109.609 41.2148 109.914 41.197C110.219 41.1793 110.519 41.2833 110.748 41.4863L121.386 50.9558C121.614 51.1592 121.752 51.445 121.77 51.7503C121.788 52.0556 121.684 52.3555 121.48 52.584L114.666 60.2396C114.565 60.353 114.443 60.4454 114.307 60.5114C114.17 60.5775 114.022 60.6158 113.871 60.6242C113.848 60.6254 113.825 60.6261 113.803 60.6261ZM109.981 41.4734C109.858 41.4731 109.736 41.4991 109.623 41.5496C109.51 41.6 109.41 41.6739 109.328 41.7662L102.513 49.4217C102.359 49.5951 102.28 49.8225 102.293 50.0541C102.307 50.2856 102.412 50.5023 102.585 50.6567L113.223 60.1261C113.308 60.2025 113.408 60.2613 113.517 60.299C113.625 60.3367 113.74 60.3527 113.855 60.346C113.97 60.3394 114.082 60.3102 114.185 60.2601C114.289 60.2101 114.381 60.1401 114.457 60.0543L121.272 52.3987C121.426 52.2255 121.506 51.998 121.492 51.7665C121.479 51.5349 121.374 51.3181 121.2 51.1639L110.563 41.6943C110.403 41.5517 110.196 41.4731 109.981 41.4734H109.981Z" fill="#3F3D56"/>
<path d="M117.66 53.3061C117.545 53.3063 117.434 53.2641 117.349 53.1877L108.998 45.7545C108.952 45.7136 108.914 45.664 108.887 45.6085C108.86 45.553 108.845 45.4928 108.841 45.4312C108.837 45.3696 108.846 45.3079 108.866 45.2496C108.886 45.1913 108.918 45.1375 108.959 45.0914C109 45.0454 109.049 45.0078 109.105 44.981C109.161 44.9542 109.221 44.9386 109.283 44.9351C109.344 44.9316 109.406 44.9403 109.464 44.9607C109.522 44.9811 109.576 45.0128 109.622 45.054L117.972 52.4872C118.043 52.5504 118.093 52.6337 118.116 52.7261C118.139 52.8184 118.133 52.9155 118.099 53.0043C118.065 53.0931 118.005 53.1696 117.926 53.2235C117.848 53.2774 117.755 53.3062 117.66 53.3061V53.3061Z" fill="#485BFF"/>
<path d="M116.067 55.0953C115.953 55.0955 115.842 55.0533 115.756 54.9768L107.406 47.5436C107.36 47.5027 107.322 47.4531 107.295 47.3976C107.269 47.3422 107.253 47.2821 107.249 47.2206C107.246 47.1591 107.254 47.0976 107.275 47.0394C107.295 46.9813 107.326 46.9277 107.367 46.8817C107.408 46.8357 107.458 46.7982 107.513 46.7714C107.569 46.7446 107.629 46.729 107.69 46.7254C107.752 46.7218 107.813 46.7304 107.871 46.7506C107.93 46.7709 107.983 46.8023 108.029 46.8433L116.38 54.2765C116.451 54.3397 116.501 54.423 116.523 54.5153C116.546 54.6077 116.54 54.7047 116.506 54.7935C116.472 54.8824 116.412 54.9588 116.334 55.0127C116.255 55.0666 116.163 55.0954 116.067 55.0953H116.067Z" fill="#485BFF"/>
<path d="M114.475 56.8848C114.36 56.885 114.249 56.8428 114.163 56.7662L105.813 49.3332C105.767 49.2922 105.729 49.2426 105.702 49.1872C105.675 49.1317 105.66 49.0715 105.656 49.01C105.652 48.9485 105.661 48.8869 105.681 48.8287C105.701 48.7705 105.733 48.7168 105.774 48.6708C105.815 48.6248 105.865 48.5873 105.92 48.5604C105.976 48.5336 106.036 48.518 106.097 48.5144C106.159 48.5109 106.22 48.5195 106.279 48.5398C106.337 48.5601 106.39 48.5917 106.436 48.6327L114.787 56.0659C114.858 56.1291 114.908 56.2124 114.93 56.3047C114.953 56.3971 114.947 56.4941 114.913 56.583C114.879 56.6718 114.819 56.7483 114.741 56.8022C114.663 56.8561 114.57 56.8849 114.475 56.8848H114.475Z" fill="#485BFF"/>
<path d="M104.925 46.3014C104.818 46.1093 104.754 45.896 104.739 45.6766C104.723 45.4572 104.755 45.2371 104.834 45.0316C104.912 44.8261 105.035 44.6403 105.193 44.4873C105.351 44.3343 105.541 44.2179 105.748 44.1461L105.758 38.7993L108.074 40.3328L107.711 45.1751C107.808 45.5324 107.771 45.913 107.607 46.2448C107.442 46.5766 107.162 46.8366 106.818 46.9754C106.475 47.1142 106.093 47.1223 105.744 46.9981C105.395 46.8738 105.104 46.6259 104.925 46.3014H104.925Z" fill="#9E616A"/>
<path d="M105.14 22.6435L106.175 21.6458L106.935 22.1946C106.935 22.1946 107.683 23.0923 108.282 25.7856C108.88 28.4788 108.282 43.2916 108.282 43.2916L104.99 42.8427L105.439 35.0622L104.092 28.4788L105.14 22.6435Z" fill="#E6E6E6"/>
<path d="M106.668 21.8891L103.181 20.2233L100.813 18.0272L96.4955 17.9949L95.1028 19.8054L91.4259 21.0544L92.0388 33.7328L91.6209 34.7077C91.6209 34.7077 91.912 34.9707 92.045 35.1178C92.178 35.2648 91.8613 36.4961 91.8613 36.4961L91.6826 37.8356L92.178 38.1896L91.534 38.9503L91.3741 40.1494C91.3741 40.1494 102.616 37.3554 104.74 41.984C104.852 42.2286 104.576 39.8385 104.576 39.8385L104.299 38.0888L104.573 36.5183L104.991 36.1005L104.29 35.3997L104.74 32.0747L106.668 21.8891Z" fill="#3F3D56"/>
<path d="M27.5826 49.996C27.6691 49.7763 27.7064 49.5402 27.6919 49.3045C27.6773 49.0688 27.6113 48.8391 27.4984 48.6317C27.3854 48.4242 27.2284 48.2441 27.0383 48.1039C26.8483 47.9637 26.6298 47.8669 26.3982 47.8203L25.6236 42.1318L23.3774 44.0953L24.4574 49.1961C24.4049 49.5903 24.4988 49.99 24.7213 50.3195C24.9438 50.6491 25.2795 50.8856 25.6647 50.9842C26.0499 51.0828 26.4579 51.0366 26.8114 50.8545C27.1649 50.6724 27.4393 50.3669 27.5826 49.996V49.996Z" fill="#FFB8B8"/>
<path d="M18.7827 24.7961L18.1739 24.9128L17.8059 25.3761C17.8059 25.3761 17.2105 27.7112 17.8887 29.3431C18.5669 30.975 23.4703 47.3786 23.4703 47.3786L26.9922 47.4807L24.2486 34.1809L18.7827 24.7961Z" fill="#3F3D56"/>
<path d="M32.6671 49.1618C32.5048 48.9902 32.3822 48.7851 32.3078 48.5609C32.2334 48.3368 32.2091 48.099 32.2365 47.8644C32.264 47.6299 32.3425 47.4041 32.4666 47.2032C32.5907 47.0023 32.7573 46.831 32.9548 46.7014L31.5526 41.1343L34.3688 42.1186L35.2686 47.2543C35.4643 47.6005 35.5262 48.0064 35.4426 48.3951C35.359 48.7839 35.1358 49.1285 34.8151 49.3636C34.4944 49.5987 34.0986 49.708 33.7027 49.6708C33.3069 49.6337 32.9384 49.4525 32.6671 49.1618V49.1618Z" fill="#FFB8B8"/>
<path d="M31.4366 22.4979L32.045 22.3792L32.5592 22.6718C32.5592 22.6718 33.9823 24.6166 33.9615 26.3837C33.9407 28.1508 35.5071 45.1998 35.5071 45.1998L32.2772 46.6077L29.864 33.244L31.4366 22.4979Z" fill="#3F3D56"/>
</g>
<defs>
<clipPath id="clip0_84_597">
<rect width="121.544" height="82.1969" fill="white" transform="translate(0.227905 0.851074)"/>
</clipPath>
</defs>
</svg>
