<svg width="122" height="119" viewBox="0 0 122 119" fill="none" xmlns="http://www.w3.org/2000/svg">
<g clip-path="url(#clip0_84_687)">
<path d="M103.784 115.648C104.067 116.709 104.81 117.592 105.707 118.236C105.853 118.341 106.003 118.438 106.156 118.53C106.202 118.557 106.249 118.587 106.298 118.612C106.351 118.643 106.403 118.672 106.456 118.7H110.674C110.75 118.546 110.824 118.39 110.898 118.236C112.705 114.437 113.975 110.338 113.758 106.164C113.672 104.544 113.332 102.949 112.75 101.435C111.592 98.4187 109.478 95.8077 106.571 94.4935C106.499 94.4603 106.423 94.4272 106.349 94.396C106.372 94.4798 106.395 94.5617 106.419 94.6456C106.731 95.7692 106.951 96.9163 107.078 98.0755C107.09 98.1652 107.099 98.2549 107.107 98.3465C107.384 101.142 107.138 103.965 106.382 106.671C106.38 106.677 106.378 106.684 106.376 106.69C106.21 107.289 106.018 107.878 105.799 108.459C105.627 108.917 105.442 109.369 105.239 109.814C104.393 111.68 103.258 113.669 103.784 115.648Z" fill="#E6E6E6"/>
<path d="M106.296 94.4837C106.337 94.5383 106.378 94.591 106.419 94.6456C107.275 95.7806 108.003 97.0075 108.587 98.3036C108.618 98.368 108.648 98.4323 108.673 98.4986C109.474 100.308 109.988 102.232 110.198 104.2C110.2 104.214 110.201 104.227 110.202 104.241C110.25 104.701 110.28 105.165 110.291 105.629C110.335 106.499 110.241 107.371 110.013 108.211C109.805 108.898 109.44 109.526 108.948 110.048C108.899 110.101 108.85 110.153 108.798 110.204C108.759 110.245 108.716 110.286 108.675 110.325C108.281 110.701 107.85 111.05 107.48 111.454C107.31 111.635 107.157 111.831 107.021 112.039C106.806 112.388 106.667 112.778 106.613 113.185C106.559 113.592 106.592 114.005 106.709 114.398C106.975 115.385 107.581 116.217 108.201 117.011C108.511 117.409 108.831 117.811 109.108 118.236C109.209 118.388 109.303 118.542 109.389 118.7H109.634C109.552 118.542 109.463 118.388 109.365 118.236C108.654 117.114 107.641 116.151 107.117 114.917C106.762 114.084 106.655 113.14 107.103 112.323C107.235 112.086 107.394 111.865 107.577 111.664C107.934 111.261 108.361 110.916 108.749 110.551C108.847 110.459 108.942 110.366 109.034 110.268C109.52 109.775 109.895 109.183 110.133 108.533C110.404 107.707 110.532 106.841 110.512 105.973C110.512 105.419 110.483 104.861 110.428 104.307C110.422 104.237 110.414 104.165 110.406 104.093C110.008 100.608 108.683 97.2936 106.571 94.4935C106.532 94.4389 106.491 94.3863 106.45 94.3336C106.366 94.2244 106.212 94.3765 106.296 94.4837Z" fill="white"/>
<path d="M110.328 104.326C111.003 104.212 111.616 103.863 112.057 103.339C112.499 102.815 112.739 102.152 112.737 101.467C112.736 101.439 112.725 101.412 112.705 101.392C112.686 101.372 112.659 101.361 112.631 101.36C112.603 101.36 112.576 101.37 112.556 101.389C112.535 101.408 112.523 101.434 112.521 101.462C112.525 102.1 112.301 102.718 111.889 103.205C111.477 103.691 110.905 104.015 110.275 104.117C110.138 104.139 110.192 104.348 110.328 104.326V104.326Z" fill="white"/>
<path d="M109.002 110.087C107.855 109.285 107.052 108.08 106.753 106.712C106.724 106.577 106.515 106.63 106.544 106.765C106.858 108.188 107.696 109.44 108.892 110.272C109.006 110.351 109.115 110.166 109.002 110.087V110.087Z" fill="white"/>
<path d="M108.652 98.2809C108.399 98.3792 108.127 98.4134 107.858 98.3803C107.59 98.3473 107.333 98.248 107.112 98.0914C107 98.0108 106.89 98.1962 107.002 98.2763C107.247 98.4482 107.53 98.5575 107.827 98.5947C108.123 98.6319 108.425 98.5958 108.704 98.4897C108.732 98.4819 108.755 98.4641 108.769 98.4398C108.784 98.4155 108.788 98.3866 108.782 98.3589C108.775 98.3313 108.758 98.3076 108.733 98.293C108.709 98.2784 108.679 98.274 108.652 98.2809Z" fill="white"/>
<path d="M91.6678 102.024C91.7361 102.077 91.8063 102.129 91.8745 102.184C92.8003 102.892 93.667 103.675 94.466 104.524C94.5284 104.588 94.5908 104.654 94.6512 104.721L94.6532 104.723C96.5477 106.779 98.0457 109.168 99.0716 111.77L99.0775 111.787C99.0795 111.793 99.0814 111.797 99.0833 111.803C99.49 112.844 99.8179 113.914 100.064 115.005C100.302 116.069 100.497 117.21 100.869 118.236C100.926 118.393 100.988 118.549 101.055 118.7H109.724C109.695 118.546 109.664 118.39 109.632 118.236C109.191 115.976 108.502 113.772 107.577 111.664C107.546 111.594 107.515 111.524 107.48 111.454C107.002 110.412 106.441 109.411 105.801 108.461C105.801 108.46 105.801 108.46 105.801 108.46C105.801 108.46 105.8 108.459 105.8 108.459C105.8 108.459 105.8 108.459 105.8 108.459C105.799 108.459 105.799 108.459 105.799 108.459C105.447 107.94 105.07 107.44 104.668 106.959C103.625 105.718 102.393 104.65 101.018 103.793C101.01 103.787 101 103.783 100.992 103.777C98.2546 102.079 95.01 101.269 91.9077 101.969H91.9057C91.8258 101.987 91.7478 102.004 91.6678 102.024Z" fill="#E6E6E6"/>
<path d="M91.6776 102.127C91.7439 102.145 91.8102 102.164 91.8745 102.184C93.2411 102.574 94.5601 103.115 95.8075 103.796C95.8699 103.83 95.9323 103.865 95.9947 103.9C97.7185 104.862 99.2832 106.085 100.634 107.525C100.635 107.526 100.635 107.527 100.635 107.529C100.651 107.544 100.669 107.562 100.682 107.577C100.994 107.913 101.295 108.262 101.579 108.621C102.136 109.289 102.585 110.041 102.909 110.849C103.157 111.522 103.244 112.244 103.164 112.957C103.159 113.029 103.149 113.099 103.139 113.172C103.131 113.228 103.124 113.285 103.114 113.343C102.985 114.125 102.763 114.909 102.825 115.706C102.863 116.115 102.987 116.511 103.189 116.868C103.391 117.226 103.667 117.536 103.997 117.779C104.222 117.953 104.462 118.106 104.715 118.236C105.076 118.422 105.452 118.577 105.84 118.7H106.606C106.503 118.67 106.401 118.641 106.298 118.612C105.931 118.508 105.571 118.383 105.22 118.236C105.019 118.152 104.824 118.055 104.635 117.947C103.851 117.497 103.198 116.806 103.061 115.884C102.942 115.077 103.172 114.269 103.309 113.48C103.332 113.343 103.354 113.209 103.365 113.074C103.458 112.39 103.402 111.694 103.2 111.035C102.919 110.211 102.5 109.442 101.959 108.761C101.625 108.317 101.269 107.891 100.891 107.484C100.844 107.431 100.795 107.378 100.745 107.326C99.366 105.875 97.7741 104.644 96.0239 103.674H96.022C94.7206 102.949 93.3401 102.377 91.9077 101.969H91.9057C91.8414 101.95 91.7751 101.93 91.7107 101.913C91.5762 101.878 91.545 102.09 91.6776 102.127Z" fill="white"/>
<path d="M100.822 107.558C101.293 107.06 101.572 106.412 101.609 105.728C101.646 105.044 101.438 104.37 101.024 103.824C100.94 103.714 100.765 103.84 100.849 103.95C101.236 104.457 101.429 105.086 101.393 105.723C101.357 106.359 101.095 106.962 100.654 107.423C100.558 107.523 100.727 107.657 100.822 107.558Z" fill="white"/>
<path d="M103.232 112.956C101.833 113.006 100.466 112.528 99.4045 111.615C99.2993 111.525 99.1644 111.693 99.2694 111.783C100.376 112.731 101.799 113.226 103.255 113.17C103.394 113.165 103.37 112.951 103.232 112.956Z" fill="white"/>
<path d="M95.8441 103.74C95.702 103.971 95.5048 104.162 95.2704 104.297C95.036 104.433 94.7717 104.508 94.5011 104.516C94.3623 104.519 94.3864 104.733 94.5243 104.73C94.8232 104.72 95.115 104.636 95.3743 104.487C95.6337 104.338 95.8525 104.128 96.0119 103.875C96.0289 103.853 96.0367 103.824 96.0336 103.796C96.0306 103.768 96.017 103.742 95.9955 103.724C95.9732 103.706 95.9448 103.698 95.9164 103.701C95.8881 103.704 95.8621 103.718 95.8441 103.74Z" fill="white"/>
<path d="M21.189 113.39C20.697 115.236 19.4044 116.773 17.8437 117.892C17.5893 118.075 17.3281 118.245 17.0634 118.404C16.982 118.452 16.9006 118.503 16.8158 118.547C16.7241 118.601 16.6325 118.652 16.5409 118.7H9.20246C9.07014 118.432 8.94121 118.16 8.81228 117.892C5.66723 111.283 3.45855 104.152 3.83514 96.8878C3.98454 94.0703 4.57646 91.2938 5.58917 88.6604C7.60446 83.4118 11.2822 78.8689 16.3408 76.5822C16.4663 76.5246 16.5986 76.4669 16.7275 76.4126C16.6868 76.5585 16.6461 76.701 16.6054 76.8469C16.0627 78.8019 15.6792 80.7977 15.4587 82.8147C15.4383 82.9708 15.4213 83.1268 15.4078 83.2863C14.9258 88.1506 15.3538 93.0622 16.6699 97.7699C16.6733 97.7801 16.6766 97.7936 16.68 97.8038C16.9684 98.8454 17.3032 99.8711 17.6843 100.881C17.9829 101.678 18.3052 102.465 18.658 103.239C20.1305 106.486 22.105 109.946 21.189 113.39Z" fill="#E6E6E6"/>
<path d="M16.8191 76.5651C16.7479 76.6601 16.6766 76.7517 16.6054 76.8467C15.1152 78.8216 13.8498 80.9563 12.8326 83.2115C12.7783 83.3235 12.7275 83.4354 12.6834 83.5508C11.2896 86.6999 10.3945 90.0467 10.0302 93.4711C10.0263 93.4947 10.024 93.5185 10.0234 93.5424C9.93863 94.3431 9.88775 95.1505 9.86739 95.958C9.82668 97.4678 9.92166 98.9979 10.3525 100.45C10.7144 101.644 11.3485 102.738 12.205 103.646C12.2898 103.738 12.3746 103.829 12.4662 103.917C12.5341 103.989 12.6087 104.06 12.68 104.128C13.3653 104.783 14.1151 105.39 14.7597 106.092C15.0552 106.407 15.322 106.748 15.557 107.11C16.3475 108.348 16.4798 109.811 16.0998 111.215C15.6384 112.932 14.5833 114.381 13.5044 115.761C12.965 116.454 12.4085 117.152 11.9268 117.892C11.7504 118.157 11.5875 118.425 11.4382 118.7H11.0107C11.1532 118.425 11.3093 118.157 11.4789 117.892C12.7173 115.941 14.4781 114.265 15.3908 112.118C16.0082 110.669 16.1948 109.027 15.4145 107.605C15.1858 107.192 14.9091 106.807 14.5901 106.459C13.9692 105.756 13.2262 105.156 12.551 104.521C12.3814 104.362 12.2152 104.199 12.0557 104.029C11.2103 103.17 10.5579 102.141 10.1422 101.01C9.63666 99.5882 9.48401 98.0547 9.48401 96.5551C9.48401 95.5916 9.53489 94.6213 9.62989 93.6578C9.64006 93.5356 9.65364 93.4101 9.66721 93.2846C10.361 87.2212 12.6653 81.4541 16.3407 76.5821C16.4086 76.4871 16.4798 76.3955 16.5511 76.3039C16.697 76.1139 16.965 76.3785 16.8191 76.5651Z" fill="white"/>
<path d="M9.80417 93.69C8.62903 93.4926 7.56231 92.8839 6.79452 91.9727C6.02673 91.0614 5.60786 89.9069 5.61271 88.7153C5.61336 88.6667 5.63285 88.6203 5.66706 88.5858C5.70127 88.5513 5.74755 88.5314 5.79613 88.5303C5.84471 88.5293 5.89181 88.5471 5.9275 88.5801C5.96319 88.613 5.98468 88.6586 5.98745 88.7071C5.98089 89.8167 6.37117 90.8921 7.08787 91.7392C7.80457 92.5863 8.80048 93.1493 9.89584 93.3266C10.1338 93.3654 10.0408 93.7286 9.80417 93.69Z" fill="white"/>
<path d="M12.1108 103.714C14.1073 102.319 15.5044 100.222 16.0236 97.8421C16.0749 97.6062 16.4382 97.6982 16.387 97.9337C15.8421 100.409 14.3837 102.588 12.3029 104.036C12.1044 104.174 11.9134 103.851 12.1108 103.714L12.1108 103.714Z" fill="white"/>
<path d="M12.7204 83.1719C13.1592 83.343 13.6336 83.4025 14.101 83.3449C14.5684 83.2874 15.0142 83.1146 15.3984 82.8422C15.595 82.7019 15.7858 83.0246 15.5905 83.164C15.1647 83.463 14.6721 83.6531 14.1558 83.7179C13.6395 83.7826 13.1152 83.7199 12.6287 83.5352C12.5814 83.5217 12.541 83.4906 12.5158 83.4483C12.4906 83.4061 12.4824 83.3558 12.4929 83.3077C12.5052 83.2597 12.5361 83.2184 12.5787 83.193C12.6213 83.1676 12.6722 83.16 12.7204 83.1719Z" fill="white"/>
<path d="M42.2714 89.6851C42.1526 89.7767 42.0305 89.8683 41.9117 89.9633C40.301 91.196 38.793 92.5576 37.4028 94.0346C37.2942 94.1465 37.1856 94.2619 37.0805 94.3772L37.0771 94.3806C33.7807 97.959 31.1743 102.116 29.3891 106.642L29.3789 106.673C29.3756 106.683 29.3722 106.689 29.3688 106.7C28.6612 108.511 28.0908 110.373 27.6622 112.271C27.2483 114.123 26.909 116.108 26.261 117.892C26.1626 118.167 26.0541 118.438 25.9387 118.7H10.8546C10.9055 118.432 10.9598 118.16 11.0141 117.892C11.8215 113.96 12.9547 110.082 14.59 106.459C14.6443 106.337 14.6986 106.214 14.7597 106.092C15.5905 104.28 16.5674 102.538 17.6808 100.884C17.6808 100.884 17.6809 100.884 17.681 100.883C17.6812 100.883 17.6815 100.882 17.6818 100.882C17.6821 100.882 17.6825 100.882 17.6829 100.881C17.6833 100.881 17.6837 100.881 17.6842 100.881C18.2956 99.9787 18.9523 99.1079 19.652 98.2721C21.4665 96.1133 23.6098 94.2538 26.0032 92.7623C26.0168 92.7521 26.0337 92.7453 26.0473 92.7351C30.8107 89.7801 36.4562 88.3721 41.8541 89.5901H41.8575C41.9965 89.6206 42.1323 89.6511 42.2714 89.6851Z" fill="#E6E6E6"/>
<path d="M42.2545 89.8649C42.1391 89.8954 42.0238 89.9293 41.9118 89.9632C39.534 90.6427 37.239 91.5837 35.0686 92.769C34.9601 92.8267 34.8515 92.8878 34.7429 92.9489C31.7436 94.6228 29.0211 96.7503 26.6716 99.2559C26.6698 99.2578 26.6686 99.2602 26.6682 99.2627C26.6411 99.2899 26.6106 99.3204 26.5868 99.3476C26.044 99.9311 25.5215 100.538 25.0262 101.163C24.0898 102.343 23.2416 103.622 22.7123 105.041C22.2812 106.212 22.129 107.468 22.2679 108.708C22.278 108.834 22.295 108.956 22.312 109.081C22.3255 109.18 22.3391 109.278 22.3561 109.38C22.58 110.74 22.9668 112.104 22.8582 113.492C22.7428 114.958 21.9693 116.206 20.8192 117.098C20.4282 117.401 20.0102 117.666 19.5706 117.892C18.9421 118.216 18.2872 118.486 17.613 118.7H16.2797C16.4595 118.649 16.6359 118.598 16.8157 118.547C17.4538 118.367 18.0804 118.148 18.6919 117.892C19.0413 117.746 19.3812 117.578 19.7097 117.39C21.0736 116.606 22.2102 115.405 22.4477 113.801C22.6546 112.396 22.2543 110.991 22.0168 109.617C21.9761 109.38 21.9387 109.146 21.9184 108.912C21.7564 107.722 21.8548 106.511 22.2068 105.363C22.658 103.921 23.4587 102.608 24.3646 101.407C24.9459 100.635 25.5665 99.8932 26.2238 99.1847C26.3052 99.0931 26.39 99.0015 26.4782 98.9099C28.8771 96.3863 31.6469 94.2435 34.692 92.5553H34.6954C36.9597 91.2948 39.3618 90.2998 41.8541 89.59H41.8575C41.9695 89.5561 42.0848 89.5222 42.1968 89.4916C42.4309 89.4306 42.4852 89.8004 42.2545 89.8649Z" fill="white"/>
<path d="M26.344 99.3134C25.5245 98.4483 25.0393 97.3201 24.9749 96.1302C24.9105 94.9403 25.2711 93.7663 25.9924 92.8178C26.139 92.6264 26.4434 92.8453 26.2966 93.0369C25.6233 93.9189 25.2874 95.0125 25.3497 96.1204C25.4119 97.2283 25.8681 98.2774 26.6359 99.0785C26.8026 99.2528 26.5097 99.4867 26.344 99.3134Z" fill="white"/>
<path d="M22.1504 108.706C24.5847 108.794 26.9626 107.961 28.8101 106.373C28.993 106.216 29.2277 106.508 29.045 106.665C27.1194 108.314 24.6431 109.176 22.1101 109.079C21.8687 109.069 21.9103 108.697 22.1504 108.706Z" fill="white"/>
<path d="M35.005 92.6711C35.2523 93.0719 35.5953 93.405 36.0032 93.6405C36.411 93.8759 36.871 94.0064 37.3418 94.0202C37.5832 94.0266 37.5413 94.3991 37.3014 94.3928C36.7814 94.3751 36.2736 94.2304 35.8224 93.9712C35.3712 93.712 34.9903 93.3463 34.713 92.906C34.6834 92.8667 34.6699 92.8176 34.6752 92.7686C34.6805 92.7197 34.7042 92.6746 34.7416 92.6426C34.7804 92.6117 34.8298 92.5973 34.8791 92.6027C34.9285 92.608 34.9737 92.6326 35.005 92.6711L35.005 92.6711Z" fill="white"/>
<path d="M122 118.488C122 118.518 121.994 118.548 121.983 118.577C121.971 118.605 121.954 118.63 121.932 118.652C121.911 118.673 121.885 118.691 121.857 118.702C121.829 118.714 121.798 118.72 121.768 118.72H0.23204C0.170499 118.72 0.111478 118.695 0.0679624 118.652C0.0244466 118.608 0 118.549 0 118.488C0 118.426 0.0244466 118.367 0.0679624 118.324C0.111478 118.28 0.170499 118.256 0.23204 118.256H121.768C121.798 118.256 121.829 118.261 121.857 118.273C121.885 118.285 121.911 118.302 121.932 118.323C121.954 118.345 121.971 118.371 121.983 118.399C121.994 118.427 122 118.457 122 118.488Z" fill="#CCCCCC"/>
<path d="M75.0896 31.9754H59.8803C59.2041 30.7166 58.1822 29.6428 59.8803 27.114C59.8803 25.4353 60.5317 23.8222 61.6973 22.6142C62.8629 21.4062 64.4518 20.6977 66.1293 20.6377C69.4193 19.6544 71.7887 21.6511 72.4326 24.8498L75.0896 31.9754Z" fill="#2F2E41"/>
<path d="M44.934 34.6171C45.2106 34.6476 45.4771 34.7383 45.7148 34.8828C45.9525 35.0274 46.1556 35.2224 46.3099 35.4539C46.4641 35.6855 46.5656 35.9481 46.6074 36.2232C46.6492 36.4982 46.6301 36.7791 46.5516 37.0461L58.3552 46.8634L55.0756 48.1266L44.0521 38.3136C43.6124 38.152 43.2473 37.8347 43.026 37.4218C42.8047 37.009 42.7425 36.5293 42.8512 36.0737C42.9599 35.618 43.232 35.2181 43.6158 34.9496C43.9997 34.6812 44.4687 34.5629 44.934 34.6171Z" fill="#FFB6B6"/>
<path d="M58.6068 51.1027C55.9912 51.1033 45.7865 40.4099 45.3412 39.9419L45.228 39.8229L49.0055 38.8123L58.0677 45.3831L61.371 39.7924C61.7362 39.1759 62.2832 38.6874 62.9369 38.3939C63.5906 38.1003 64.319 38.016 65.0225 38.1525C65.6451 38.2741 66.2225 38.5641 66.6918 38.991C67.161 39.4179 67.5043 39.9653 67.6841 40.5736C67.864 41.182 67.8736 41.828 67.7119 42.4415C67.5502 43.0549 67.2233 43.6123 66.7669 44.0529L60.5188 50.0846C60.0385 50.5473 59.4536 50.8872 58.8139 51.0755C58.7465 51.0943 58.6768 51.1035 58.6068 51.1027Z" fill="#485BFF"/>
<path d="M58.8079 49.6222L60.0753 54.3995L70.6048 56.7317L69.9223 54.302L71.8851 52.2117L69.7274 48.6472L58.8079 49.6222Z" fill="#FFB8B8"/>
<path d="M57.8764 114.787H55.8193L54.8402 106.852H57.8764V114.787Z" fill="#FFB8B8"/>
<path d="M58.9622 118.351H57.4869L57.2236 116.958L56.5492 118.351H52.6363C52.4488 118.351 52.2661 118.291 52.1151 118.18C51.964 118.069 51.8524 117.912 51.7966 117.733C51.7407 117.554 51.7436 117.362 51.8048 117.185C51.866 117.007 51.9822 116.854 52.1365 116.748L55.2612 114.59V113.182L58.5478 113.378L58.9622 118.351Z" fill="#2F2E41"/>
<path d="M83.66 113.039L81.7485 113.8L77.9043 106.79L80.7252 105.667L83.66 113.039Z" fill="#FFB8B8"/>
<path d="M85.9871 115.949L84.6164 116.495L83.8566 115.298L83.7451 116.842L80.1097 118.289C79.9354 118.358 79.7436 118.37 79.5621 118.323C79.3806 118.275 79.2191 118.171 79.101 118.025C78.9829 117.88 78.9145 117.7 78.9057 117.513C78.897 117.325 78.9484 117.14 79.0523 116.984L81.1573 113.823L80.6365 112.515L83.7627 111.482L85.9871 115.949Z" fill="#2F2E41"/>
<path d="M71.8425 52.7662L71.6472 52.5969C71.5897 52.5473 65.8176 47.6783 58.6195 52.2244L58.3863 52.3716L56.912 45.8849C56.7404 45.1391 56.7795 44.3602 57.0248 43.6353C57.2701 42.9103 57.712 42.2678 58.3012 41.7794L63.4979 37.4557L65.3206 36.5444L65.0893 35.0401C65.0448 34.7444 65.103 34.4423 65.2541 34.1841C65.4052 33.926 65.6402 33.7274 65.9199 33.6214L68.752 32.5594C69.0686 32.4392 69.4197 32.4474 69.7303 32.5825C70.0409 32.7175 70.2864 32.9687 70.4144 33.2823L70.7145 34.0085L71.3572 33.7824C71.7469 33.6403 72.1609 33.5766 72.5753 33.5952C72.9897 33.6137 73.3964 33.714 73.7719 33.8904C74.1485 34.073 74.4826 34.3326 74.7526 34.6524C75.0225 34.9723 75.2224 35.3452 75.3392 35.7471C76.4441 39.4837 76.1479 43.4951 74.5061 47.0289L71.8425 52.7662Z" fill="#485BFF"/>
<path d="M58.67 111.142H54.4147L55.5907 91.1495L54.731 77.5984L54.7328 77.5875L57.9393 58.1626C58.1915 56.6308 58.8731 55.2021 59.905 54.0423L59.944 53.9983L70.6749 56.6486L71.7538 59.1087C75.4379 61.2999 76.6014 73.6559 76.6492 74.1822L78.2089 89.5854L82.0242 108.464L79.3373 109.91L79.2924 109.821L70.8103 92.9539L65.4536 75.1669L62.0231 91.1756L58.67 111.142Z" fill="#2F2E41"/>
<path d="M75.8342 68.8698C75.638 68.6725 75.4874 68.4347 75.393 68.1729C75.2987 67.9112 75.2628 67.6319 75.2881 67.3549C75.3133 67.0778 75.399 66.8096 75.5391 66.5692C75.6792 66.3288 75.8703 66.1221 76.0989 65.9635L73.0687 50.9128L76.415 51.9872L78.8405 66.545C79.0814 66.9468 79.1665 67.4229 79.0798 67.8832C78.9931 68.3436 78.7405 68.7561 78.3699 69.0426C77.9994 69.3292 77.5366 69.4699 77.0692 69.438C76.6019 69.4061 76.1625 69.204 75.8342 68.8698V68.8698Z" fill="#FFB6B6"/>
<path d="M71.36 37.0264L73.4362 35.4592C73.4362 35.4592 75.2677 35.3295 75.5921 38.6324C75.9165 41.9354 76.5826 48.3722 76.5826 48.3722L79.7595 63.0868L75.3617 64.0521L71.9589 48.1725L69.9176 43.4568L71.36 37.0264Z" fill="#485BFF"/>
<path d="M65.1496 31.802C67.947 31.802 70.2148 29.5342 70.2148 26.7368C70.2148 23.9394 67.947 21.6716 65.1496 21.6716C62.3522 21.6716 60.0845 23.9394 60.0845 26.7368C60.0845 29.5342 62.3522 31.802 65.1496 31.802Z" fill="#FFB8B8"/>
<path d="M68.0419 21.8204C67.1673 20.9545 65.9858 20.4695 64.7551 20.471H63.7801C62.539 20.471 61.3487 20.964 60.471 21.8416C59.5934 22.7192 59.1003 23.9096 59.1003 25.1507V25.1507C59.9518 25.8889 64.0743 25.7373 66.51 25.5407C66.3354 28.0782 64.1797 30.5717 64.7551 31.9754H74.5046V31.0004C75.3393 26.7165 72.2227 23.1431 68.0419 21.8204Z" fill="#2F2E41"/>
<path d="M24.0995 87.8403C25.8225 87.8403 27.2193 86.4435 27.2193 84.7204C27.2193 82.9974 25.8225 81.6006 24.0995 81.6006C22.3764 81.6006 20.9796 82.9974 20.9796 84.7204C20.9796 86.4435 22.3764 87.8403 24.0995 87.8403Z" fill="#F2F2F2"/>
<path d="M101.023 100.027C102.423 100.027 103.558 98.8924 103.558 97.4924C103.558 96.0924 102.423 94.9575 101.023 94.9575C99.6234 94.9575 98.4885 96.0924 98.4885 97.4924C98.4885 98.8924 99.6234 100.027 101.023 100.027Z" fill="#F2F2F2"/>
<path d="M89.1289 47.1848C90.5289 47.1848 91.6638 46.0498 91.6638 44.6499C91.6638 43.2499 90.5289 42.115 89.1289 42.115C87.7289 42.115 86.594 43.2499 86.594 44.6499C86.594 46.0498 87.7289 47.1848 89.1289 47.1848Z" fill="#F2F2F2"/>
<path d="M37.2314 22.1772C38.7265 18.7139 39.9349 14.7889 38.9982 11.009C38.2651 8.05093 36.1647 5.21508 33.0909 4.45888C31.5094 4.09324 29.8516 4.25529 28.3708 4.9203C26.89 5.58531 25.6676 6.71672 24.8902 8.14173C24.1281 9.58322 23.8245 11.2231 24.0199 12.8419C24.2204 14.4498 24.9202 16.2202 26.394 17.0629C27.7393 17.8321 29.6152 17.6184 30.3854 16.1586C31.033 14.9314 30.7809 13.3546 29.9307 12.2926C28.8935 10.997 27.2148 10.4128 25.6348 10.124C23.974 9.8187 22.2743 9.78842 20.6036 10.0343C17.3176 10.5214 14.2116 12.1941 12.3326 14.9822C10.5961 17.559 9.94203 20.9731 11.0974 23.9171C12.2493 26.852 14.8895 28.9251 17.8084 29.9469C21.3899 31.2006 25.3247 30.7539 28.9054 29.7389C29.8481 29.4717 30.778 29.162 31.6988 28.8273C32.0498 28.6997 31.8983 28.1342 31.5433 28.2632C28.0542 29.5315 24.3111 30.478 20.5756 30.0009C17.6911 29.6324 14.8498 28.2692 12.9865 25.9998C12.0724 24.8927 11.4614 23.5673 11.2134 22.1532C10.9858 20.7109 11.1101 19.2349 11.576 17.8511C12.057 16.4204 12.8409 15.1103 13.8743 14.0101C14.9077 12.91 16.1662 12.0457 17.564 11.4762C19.0221 10.8739 20.5747 10.5324 22.151 10.4674C23.719 10.3787 25.2906 10.5607 26.7969 11.0053C28.1396 11.4214 29.569 12.2332 30.0134 13.6578C30.3675 14.7928 30.1016 16.3045 28.8739 16.7822C28.5155 16.9069 28.1341 16.9514 27.7566 16.9126C27.3792 16.8738 27.0148 16.7527 26.6892 16.5578C26.015 16.1381 25.484 15.5236 25.1665 14.7957C24.5472 13.398 24.3867 11.8401 24.7078 10.3456C25.029 8.85101 25.8153 7.4966 26.9541 6.47674C28.1088 5.50261 29.55 4.93234 31.0586 4.85269C32.5183 4.77693 33.9603 5.19968 35.148 6.05155C36.3087 6.91341 37.2266 8.0609 37.8126 9.38248C39.2738 12.534 38.7923 16.1244 37.7195 19.3153C37.427 20.1852 37.09 21.0395 36.7263 21.882C36.5787 22.224 37.0825 22.5223 37.2314 22.1772Z" fill="#F2F2F2"/>
<path d="M37.6514 33.5355C40.9898 33.5355 43.6961 30.8292 43.6961 27.4908C43.6961 24.1524 40.9898 21.446 37.6514 21.446C34.313 21.446 31.6067 24.1524 31.6067 27.4908C31.6067 30.8292 34.313 33.5355 37.6514 33.5355Z" fill="white"/>
<path d="M43.1111 27.4907C43.1109 28.6168 42.7626 29.7152 42.114 30.6357C41.4654 31.5562 40.5482 32.2537 39.4878 32.6327C38.4275 33.0117 37.2759 33.0537 36.1908 32.753C35.1056 32.4522 34.14 31.8234 33.426 30.9526C33.2626 30.7526 33.1137 30.5411 32.9806 30.3196C32.8417 30.0873 32.7175 29.8465 32.6087 29.5986C32.4983 29.327 32.4085 29.0474 32.3402 28.7623C32.2735 28.5013 32.2299 28.235 32.21 27.9663C32.1125 26.8358 32.3688 25.703 32.9433 24.7245C33.5178 23.7459 34.3822 22.9702 35.4169 22.5044C36.1857 22.1606 37.0235 21.999 37.8649 22.0323C38.7064 22.0656 39.5288 22.2928 40.268 22.6962C41.0072 23.0997 41.6433 23.6684 42.1265 24.3581C42.6097 25.0478 42.9271 25.8398 43.0538 26.6724C43.0661 26.7481 43.0663 26.7516 43.0698 26.7811C43.079 26.8589 43.0867 26.9369 43.0927 27.0151C43.105 27.1734 43.1102 27.332 43.1111 27.4907C43.1153 28.2433 44.2852 28.245 44.281 27.4907C44.2851 25.775 43.6259 24.1242 42.441 22.8832C41.2562 21.6423 39.6375 20.9075 37.9235 20.8323C36.2094 20.7571 34.5326 21.3475 33.2437 22.4799C31.9548 23.6123 31.1535 25.1992 31.0074 26.9086C30.8613 28.6181 31.3817 30.3179 32.4598 31.6526C33.5378 32.9873 35.0901 33.8536 36.7921 34.0704C38.4941 34.2872 40.2139 33.8377 41.5922 32.8158C42.9704 31.7939 43.9002 30.2789 44.1873 28.5873C44.2459 28.2247 44.2772 27.8581 44.281 27.4907C44.2852 26.7378 43.1153 26.7369 43.1111 27.4907Z" fill="#F2F2F2"/>
<path d="M40.2673 25.816L40.2666 25.8146C40.5132 25.666 40.6976 25.4332 40.7857 25.1592C40.5582 25.2943 40.3098 25.3904 40.0506 25.4435C39.926 25.2778 39.7644 25.1435 39.5787 25.0512C39.3931 24.959 39.1885 24.9113 38.9811 24.9121C38.6062 24.9122 38.2466 25.0612 37.9815 25.3264C37.7164 25.5916 37.5675 25.9512 37.5675 26.3262L37.5677 26.3458C36.7761 26.2375 36.0554 25.8324 35.5514 25.2125C35.5228 25.1775 35.4844 25.1518 35.441 25.1388C35.3977 25.1258 35.3515 25.1261 35.3083 25.1397C35.2785 25.1436 35.2499 25.1542 35.2247 25.1705C35.1994 25.1868 35.1781 25.2086 35.1622 25.2341C35.0445 25.4543 34.9923 25.7036 35.0121 25.9524C35.0118 26.1752 35.0651 26.3948 35.1677 26.5926C35.1212 26.6015 35.0792 26.6263 35.0491 26.6628C35.0189 26.6993 35.0024 26.7451 35.0024 26.7925V26.8078C35.0021 27.0055 35.0442 27.201 35.1257 27.3812C35.2071 27.5614 35.3262 27.7221 35.4748 27.8525L35.4698 27.858C35.4464 27.8844 35.4303 27.9164 35.423 27.9509C35.4158 27.9855 35.4176 28.0213 35.4284 28.0549C35.4888 28.2422 35.588 28.4146 35.7197 28.5608C35.8514 28.707 36.0126 28.8237 36.1926 28.9032C35.8164 29.0614 35.405 29.1169 35.0004 29.0642C34.9616 29.0596 34.9223 29.0663 34.8871 29.0835C34.852 29.1007 34.8226 29.1277 34.8024 29.1611C34.7953 29.1694 34.7887 29.1781 34.7829 29.1873C34.7668 29.2123 34.7559 29.2402 34.7506 29.2694C34.7454 29.2986 34.7459 29.3286 34.7523 29.3576C34.7586 29.3866 34.7706 29.414 34.7875 29.4384C34.8045 29.4628 34.8261 29.4836 34.8511 29.4996C35.4304 29.872 36.1047 30.0697 36.7934 30.069C39.1291 30.069 40.3988 28.1305 40.3988 26.4639C40.3987 26.3836 40.3928 26.3035 40.3809 26.2241C40.6014 26.0597 40.7922 25.8589 40.945 25.6303L40.9455 25.6296C40.7299 25.725 40.5013 25.7878 40.2673 25.816Z" fill="#485BFF"/>
<path d="M37.8464 12.6712C41.1848 12.6712 43.8911 9.96492 43.8911 6.62651C43.8911 3.2881 41.1848 0.581787 37.8464 0.581787C34.5079 0.581787 31.8016 3.2881 31.8016 6.62651C31.8016 9.96492 34.5079 12.6712 37.8464 12.6712Z" fill="white"/>
<path d="M43.306 6.62672C43.3058 7.75276 42.9576 8.85122 42.309 9.77169C41.6604 10.6922 40.7431 11.3897 39.6828 11.7687C38.6224 12.1477 37.4709 12.1897 36.3857 11.8889C35.3006 11.5882 34.3349 10.9594 33.621 10.0886C33.4575 9.88859 33.3087 9.67705 33.1756 9.45563C33.0367 9.22326 32.9125 8.98244 32.8036 8.73457C32.6932 8.46296 32.6035 8.1834 32.5352 7.89827C32.4684 7.63731 32.4249 7.37095 32.405 7.10232C32.3075 5.97182 32.5637 4.83896 33.1382 3.86045C33.7128 2.88194 34.5771 2.10615 35.6119 1.64039C36.3806 1.29659 37.2184 1.13502 38.0599 1.1683C38.9014 1.20157 39.7238 1.42879 40.463 1.83222C41.2022 2.23565 41.8382 2.8044 42.3214 3.4941C42.8047 4.18379 43.122 4.9758 43.2488 5.80834C43.2611 5.88411 43.2612 5.88757 43.2647 5.91706C43.274 5.9949 43.2816 6.07293 43.2876 6.15113C43.2999 6.30943 43.3051 6.46799 43.306 6.62673C43.3102 7.37933 44.4802 7.38093 44.476 6.62673C44.4801 4.91102 43.8208 3.26014 42.636 2.01923C41.4511 0.778328 39.8325 0.0434736 38.1184 -0.0316957C36.4044 -0.106865 34.7276 0.483472 33.4387 1.61589C32.1498 2.74831 31.3485 4.33514 31.2024 6.04462C31.0563 7.7541 31.5767 9.45389 32.6547 10.7886C33.7328 12.1233 35.2851 12.9896 36.987 13.2064C38.689 13.4232 40.4089 12.9736 41.7871 11.9518C43.1653 10.9299 44.0952 9.41486 44.3823 7.72333C44.4409 7.36065 44.4722 6.99409 44.476 6.62673C44.4802 5.87376 43.3102 5.87287 43.306 6.62672Z" fill="#F2F2F2"/>
<path d="M39.1989 7.26521L39.3838 6.06024H38.2288C38.1899 5.0568 38.151 4.49393 39.4324 4.62874V3.60445C37.5131 3.18195 36.7125 4.15482 36.928 6.06025H35.8704V7.26521H36.928V10.057C37.3551 10.1601 37.8004 10.163 38.2288 10.0654V7.26521H39.1989Z" fill="#485BFF"/>
<path d="M14.4474 34.1204C17.7858 34.1204 20.4921 31.4141 20.4921 28.0757C20.4921 24.7373 17.7858 22.031 14.4474 22.031C11.109 22.031 8.40271 24.7373 8.40271 28.0757C8.40271 31.4141 11.109 34.1204 14.4474 34.1204Z" fill="white"/>
<path d="M19.9071 28.0757C19.9069 29.2017 19.5587 30.3002 18.9101 31.2207C18.2614 32.1411 17.3442 32.8386 16.2838 33.2176C15.2235 33.5967 14.0719 33.6387 12.9868 33.3379C11.9017 33.0372 10.936 32.4084 10.2221 31.5376C10.0586 31.3376 9.90973 31.126 9.77664 30.9046C9.63776 30.6722 9.51354 30.4314 9.40472 30.1835C9.2943 29.9119 9.20455 29.6324 9.13624 29.3473C9.06949 29.0863 9.02593 28.8199 9.00605 28.5513C8.90856 27.4208 9.1648 26.2879 9.73931 25.3094C10.3138 24.3309 11.1782 23.5551 12.2129 23.0894C12.9817 22.7456 13.8195 22.584 14.661 22.6173C15.5024 22.6505 16.3248 22.8778 17.0641 23.2812C17.8033 23.6846 18.4393 24.2534 18.9225 24.9431C19.4057 25.6328 19.7231 26.4248 19.8499 27.2573C19.8621 27.3331 19.8623 27.3365 19.8658 27.366C19.875 27.4439 19.8827 27.5219 19.8887 27.6001C19.901 27.7584 19.9062 27.917 19.9071 28.0757C19.9113 28.8283 21.0812 28.8299 21.0771 28.0757C21.0812 26.36 20.4219 24.7091 19.2371 23.4682C18.0522 22.2273 16.4336 21.4924 14.7195 21.4173C13.0054 21.3421 11.3287 21.9324 10.0397 23.0649C8.75083 24.1973 7.94956 25.7841 7.80346 27.4936C7.65736 29.2031 8.17774 30.9029 9.25581 32.2376C10.3339 33.5723 11.8862 34.4386 13.5881 34.6554C15.2901 34.8721 17.01 34.4226 18.3882 33.4008C19.7664 32.3789 20.6962 30.8638 20.9833 29.1723C21.0419 28.8096 21.0733 28.4431 21.0771 28.0757C21.0812 27.3227 19.9113 27.3218 19.9071 28.0757Z" fill="#F2F2F2"/>
<path d="M14.5915 31.0218C14.3629 31.0218 14.1376 31.0152 13.9235 31.0088C13.6654 31.0011 13.4217 30.994 13.2144 30.9999C12.9906 31.0119 12.7668 30.9774 12.557 30.8988C12.3472 30.8201 12.1559 30.6989 11.9952 30.5427C11.3534 29.8811 11.3897 28.6542 11.4189 27.6683C11.4265 27.4102 11.4338 27.1664 11.4279 26.9592C11.4159 26.7355 11.4503 26.5117 11.529 26.3019C11.6076 26.0921 11.7288 25.9008 11.885 25.7401C12.5467 25.0983 13.7737 25.1349 14.7595 25.1637C15.0177 25.1714 15.2615 25.1788 15.4686 25.1727L15.4743 25.1726C15.6971 25.1612 15.9199 25.1959 16.1287 25.2746C16.3375 25.3532 16.5278 25.4742 16.6877 25.6298C17.3296 26.2914 17.2932 27.5183 17.264 28.5042C17.2564 28.7623 17.2491 29.0061 17.255 29.2133C17.267 29.4371 17.2326 29.6609 17.1539 29.8707C17.0753 30.0805 16.954 30.2718 16.7979 30.4325C16.28 30.9349 15.4155 31.0218 14.5915 31.0218Z" fill="#485BFF"/>
<path d="M15.8141 26.9536C15.7258 26.951 15.642 26.914 15.5805 26.8506C15.519 26.7871 15.4847 26.7022 15.4849 26.6138C15.4851 26.5254 15.5197 26.4406 15.5815 26.3774C15.6433 26.3142 15.7273 26.2776 15.8156 26.2754C15.9039 26.278 15.9878 26.315 16.0493 26.3784C16.1108 26.4419 16.1451 26.5269 16.1449 26.6152C16.1447 26.7036 16.11 26.7884 16.0482 26.8516C15.9865 26.9148 15.9025 26.9514 15.8141 26.9536Z" fill="#E6E6E6"/>
<path d="M14.3415 29.5572C14.0506 29.5572 13.7662 29.4709 13.5243 29.3093C13.2824 29.1477 13.0939 28.918 12.9826 28.6492C12.8713 28.3805 12.8421 28.0848 12.8989 27.7994C12.9556 27.5141 13.0957 27.252 13.3014 27.0463C13.5071 26.8406 13.7692 26.7005 14.0545 26.6437C14.3398 26.587 14.6355 26.6161 14.9043 26.7274C15.1731 26.8387 15.4028 27.0273 15.5644 27.2691C15.726 27.511 15.8123 27.7954 15.8123 28.0863C15.8119 28.4763 15.6568 28.8501 15.3811 29.1259C15.1053 29.4016 14.7315 29.5567 14.3415 29.5572ZM14.3415 27.0055C14.1277 27.0055 13.9187 27.0688 13.741 27.1876C13.5632 27.3064 13.4247 27.4752 13.3429 27.6727C13.2611 27.8702 13.2397 28.0875 13.2814 28.2972C13.3231 28.5069 13.426 28.6995 13.5772 28.8506C13.7283 29.0018 13.9209 29.1047 14.1306 29.1464C14.3403 29.1881 14.5576 29.1667 14.7551 29.0849C14.9526 29.0031 15.1214 28.8646 15.2402 28.6868C15.359 28.5091 15.4223 28.3001 15.4223 28.0863C15.422 27.7997 15.308 27.525 15.1054 27.3224C14.9028 27.1198 14.6281 27.0058 14.3415 27.0055Z" fill="#E6E6E6"/>
</g>
<defs>
<clipPath id="clip0_84_687">
<rect width="122" height="118.72" fill="white"/>
</clipPath>
</defs>
</svg>
